<svg id="cvssLogo" width="264" height="96" version="1.1" viewBox="0 0 330 120" xmlns="http://www.w3.org/2000/svg"><style type="text/css">.st0{fill:none;}
	.st1{fill:#FFFFFF;}
	.st2{fill:#70B62C;}
	.st3{fill:#669900;}
	.st4{fill:#CAD31B;}
	.st5{fill:#FFD51D;}
	.st6{fill:#F29100;}
	.st7{fill:#CC0019;}</style><g transform="translate(-20.6 -14.997)"><path d="m306.2 124.2c-4.7 0-9.2-0.5-13.3-1.6-4.2-1-7.8-2.6-11-4.6-3.1-2-5.7-4.5-7.7-7.4s-3.1-6.3-3.5-10.2c-0.1-0.8 0.2-1.5 0.8-2.1s1.3-0.9 2-0.9h14.5c1.2 0 2.1 0.2 2.6 0.5 0.5 0.4 1.1 1.1 1.7 2.3 0.8 1.4 2.3 2.7 4.5 3.8s5.2 1.6 9 1.6c4 0 6.8-0.6 8.3-1.7s2.3-2.3 2.3-3.5c0-1.8-1.1-3.3-3.3-4.6s-5.9-2.8-11-4.5c-3.4-1.1-6.9-2.3-10.5-3.8s-6.9-3.3-9.9-5.4-5.5-4.8-7.5-7.8c-2-3.1-3-6.8-3-11.1 0-4 0.8-7.6 2.4-10.8s3.9-5.9 6.8-8.2 6.4-4 10.4-5.2 8.4-1.8 13.2-1.8c4.9 0 9.3 0.6 13.4 1.8s7.6 2.9 10.6 5.2c3 2.2 5.4 4.9 7.1 8 1.8 3.1 2.8 6.5 3.1 10.3 0.1 0.8-0.2 1.5-0.8 2.1s-1.3 0.9-2 0.9h-14.9c-1 0-1.8-0.2-2.3-0.7s-1-1.2-1.3-2.2c-0.6-1.8-2-3.4-4-4.7-2-1.4-4.9-2-8.4-2-3.7 0-6.3 0.6-7.8 1.8-1.6 1.2-2.4 2.5-2.4 3.9 0 1.6 1.1 3 3.2 4.2 2.1 1.1 5.7 2.6 10.7 4.3 2.9 1 6.1 2.2 9.8 3.7s7.1 3.3 10.3 5.6 5.9 5 8.1 8.3 3.3 7.2 3.3 11.8c0 4.1-0.8 7.7-2.5 10.8s-4 5.7-7 7.8-6.5 3.7-10.5 4.7c-4.3 0.9-8.7 1.4-13.5 1.4z"/><path d="m260.7 88.5c-2.2-3.3-4.9-6-8.1-8.3s-6.6-4.1-10.3-5.6c-3.6-1.5-6.9-2.7-9.8-3.7-5-1.7-8.6-3.1-10.7-4.3-2.1-1.1-3.2-2.5-3.2-4.2 0-1.4 0.8-2.7 2.4-3.9s4.2-1.8 7.8-1.8 6.4 0.7 8.4 2c2 1.4 3.4 2.9 4 4.7 0.4 1 0.8 1.7 1.3 2.2s1.3 0.7 2.3 0.7h15.2c0.8 0 1.5-0.3 2-0.9 0.6-0.6 0.8-1.3 0.8-2.1-0.3-3.7-1.3-7.1-3.1-10.3-1.8-3.1-4.1-5.8-7.1-8s-6.5-3.9-10.6-5.2c-4.1-1.2-8.6-1.8-13.4-1.8-4.4 0-8.4 0.5-12.1 1.5-0.7 8.9-7.2 16.1-15.7 17.9l-4.5 11.3c0.5 2.3 1.3 4.4 2.5 6.3 2 3.1 4.5 5.7 7.5 7.8s6.3 4 9.9 5.4c3.6 1.5 7.1 2.7 10.5 3.8 5.1 1.7 8.7 3.2 11 4.5 2.2 1.3 3.3 2.8 3.3 4.6 0 1.2-0.8 2.4-2.3 3.5s-4.3 1.7-8.3 1.7c-3.8 0-6.8-0.5-9-1.6s-3.7-2.3-4.5-3.8c-0.6-1.1-1.2-1.9-1.7-2.3s-1.4-0.5-2.6-0.5h-14.6c-0.8 0-1.5 0.3-2 0.9-0.6 0.6-0.8 1.3-0.8 2.1 0.4 3.9 1.5 7.3 3.5 10.2s4.5 5.4 7.7 7.4c3.1 2 6.8 3.5 11 4.6 4.1 1 8.6 1.6 13.3 1.6 4.8 0 9.2-0.5 13.3-1.6 4-1.1 7.6-2.6 10.5-4.7 3-2.1 5.3-4.7 7-7.8s2.5-6.7 2.5-10.8c-0.1-4.4-1.2-8.3-3.3-11.5z"/><path d="m74.9 104.4c4 0 7.6-0.9 10.8-2.6 3.2-1.8 5.9-4.1 7.9-7 0.9-1.5 2.2-1.9 3.8-1.2l14.9 6.5c0.6 0.2 1 0.7 1.2 1.3 0.2 0.7 0.1 1.3-0.2 1.9-1.9 3.3-4.2 6.3-6.9 9s-5.7 5-9 6.9-6.9 3.4-10.7 4.4-7.7 1.6-11.8 1.6c-6 0-11.7-1.1-17.1-3.4s-10.1-5.4-14.2-9.3c-4-3.9-7.2-8.5-9.6-13.8s-3.5-10.9-3.5-16.9 1.2-11.6 3.5-16.9c2.4-5.3 5.6-9.9 9.6-13.8s8.8-7 14.2-9.3 11.1-3.4 17.1-3.4c4.1 0 8 0.5 11.8 1.6 3.8 1 7.3 2.5 10.6 4.4s6.2 4.2 9 6.8c2.7 2.6 5 5.6 7 8.8 0.4 0.6 0.4 1.2 0.2 1.9s-0.6 1.2-1.2 1.4l-14.8 6.5c-0.7 0.4-1.4 0.4-2.1 0.3-0.7-0.2-1.2-0.6-1.7-1.3-2.1-2.9-4.7-5.3-8-7-3.3-1.8-6.9-2.6-10.8-2.6-3.1 0-6.1 0.6-8.9 1.8s-5.2 2.8-7.2 4.8c-2.1 2-3.7 4.5-4.9 7.2-1.2 2.8-1.8 5.8-1.8 8.9 0 3.2 0.6 6.1 1.8 8.9s2.8 5.2 4.9 7.2 4.5 3.7 7.2 4.8c2.8 1 5.8 1.6 8.9 1.6z"/>
	<g id="wig">
	<path id="needle" d="m196.9 25c-7.3-0.2-13.3 5.6-13.5 12.8-0.1 3.7 1.4 7.3 4.1 9.9l-14.5 34.1 1.8 7.5 6.7-3.9 14.5-34.1h0.3c7.3 0.2 13.3-5.6 13.5-12.8 0.2-7.3-5.6-13.3-12.9-13.5zm3.7 13.3c-0.1 2.2-1.9 3.9-4.1 3.9-2.2-0.1-3.9-1.9-3.9-4.1 0.1-2.2 1.9-3.9 4.1-3.9s4 1.9 3.9 4.1z"/>
</g>
	<path class="st3" d="m164.4 91.9-17.8 29.7 0.5 1.3c0.4 0.5 0.9 0.6 1.4 0.6h15.5c1.5 0 2.8-0.8 3.3-1.9l9.7-23.9c-4.4-1.5-8.6-3.4-12.6-5.8z"/><path class="st4" d="m147.7 77.2-14.3 11.4 11.8 29.1 17.5-27c-5.8-3.6-10.8-8.2-15-13.5z"/><path class="st5" d="m137.6 59.2c0-0.1-0.1-0.2-0.1-0.3l-14.2 5 8.9 22.1 14.1-10.5c-3.7-4.9-6.6-10.4-8.7-16.3z"/><path class="st6" d="m134.3 45-17.9 2 5.7 14.3 14.6-4.5c-1.1-3.8-1.9-7.7-2.4-11.8z"/><path class="st7" d="m134 38.2v-1.1l-18.9-0.4c-1.5 0-2.4 1-1.9 2.2l2.2 5.5 18.8-1.4c-0.2-1.7-0.2-3.3-0.2-4.8z"/></g></svg>
