<?xml version="1.0" encoding="UTF-8" standalone="no"?>
<svg
   xmlns:dc="http://purl.org/dc/elements/1.1/"
   xmlns:cc="http://creativecommons.org/ns#"
   xmlns:rdf="http://www.w3.org/1999/02/22-rdf-syntax-ns#"
   xmlns:svg="http://www.w3.org/2000/svg"
   xmlns="http://www.w3.org/2000/svg"
   xmlns:xlink="http://www.w3.org/1999/xlink"
   xmlns:sodipodi="http://sodipodi.sourceforge.net/DTD/sodipodi-0.dtd"
   xmlns:inkscape="http://www.inkscape.org/namespaces/inkscape"
   height="10"
   width="4520"
   version="1.1"
   viewBox="0 0 4520 10"
   id="svg2"
   inkscape:version="0.91 r13725"
   sodipodi:docname="sprite.svg">
  <metadata
     id="metadata789">
    <rdf:RDF>
      <cc:Work
         rdf:about="">
        <dc:format>image/svg+xml</dc:format>
        <dc:type
           rdf:resource="http://purl.org/dc/dcmitype/StillImage" />
      </cc:Work>
    </rdf:RDF>
  </metadata>
  <sodipodi:namedview
     pagecolor="#ffffff"
     bordercolor="#666666"
     borderopacity="1"
     objecttolerance="10"
     gridtolerance="10"
     guidetolerance="10"
     inkscape:pageopacity="0"
     inkscape:pageshadow="2"
     inkscape:window-width="1302"
     inkscape:window-height="774"
     id="namedview787"
     showgrid="true"
     inkscape:zoom="41.729698"
     inkscape:cx="745.42236"
     inkscape:cy="4.2272053"
     inkscape:window-x="88"
     inkscape:window-y="25"
     inkscape:window-maximized="0"
     inkscape:current-layer="g5198">
    <inkscape:grid
       type="xygrid"
       id="grid4917" />
  </sodipodi:namedview>
  <defs
     id="defs4">
    <pattern
       id="h"
       xlink:href="#a"
       patternTransform="matrix(.48575 .48335 -1.6112 1.6192 311.06 1042)" />
    <pattern
       id="k"
       xlink:href="#a"
       patternTransform="matrix(.48575 .48335 -1.6112 1.6192 321.1 1041.8)" />
    <pattern
       id="a"
       xlink:href="#j"
       patternTransform="matrix(2.1266 2.1161 -7.0536 7.0885 3.0046 928.36)" />
    <pattern
       id="j"
       xlink:href="#i"
       patternTransform="matrix(2.3236 1.8976 -6.3255 7.7452 2.6528 928.01)" />
    <pattern
       id="i"
       xlink:href="#l"
       patternTransform="matrix(2.3236 1.8976 -6.3255 7.7452 2.6528 1008)" />
    <pattern
       id="g"
       width="2"
       patternUnits="userSpaceOnUse"
       patternTransform="translate(0) scale(10)"
       height="1">
      <rect
         y="-.5"
         width="1"
         x="0"
         height="2"
         id="rect12" />
    </pattern>
    <pattern
       id="l"
       xlink:href="#g"
       patternTransform="matrix(2.3236 1.8976 -6.3255 7.7452 3 4)" />
    <inkscape:path-effect
       is_visible="true"
       id="path-effect6196"
       effect="spiro" />
    <inkscape:path-effect
       effect="spiro"
       id="path-effect6192"
       is_visible="true" />
  </defs>
  <rect
     style="fill:#ffffff;fill-opacity:1;stroke:#000000;stroke-width:0.48936549;stroke-linecap:round;stroke-linejoin:round;stroke-miterlimit:4;stroke-dasharray:none;stroke-dashoffset:0;stroke-opacity:1"
     id="rect5727"
     width="2.5106344"
     height="1.5106345"
     x="713.74469"
     y="1.7446828"
     ry="0.51645714" />
  <rect
     transform="matrix(.89160 -.45282 .89160 .45282 0 0)"
     height="4.1075"
     width="4.1075"
     stroke="#000"
     stroke-linecap="round"
     y="243.33"
     x="229.23"
     stroke-width=".55642"
     fill="#6d7763"
     id="rect15" />
  <g
     transform="matrix(.86603 .5 -.5 .86603 605.11 -1204.3)"
     id="g19">
    <path
       d="m605.18 1047.3c1.053-.5756.98509-2.1625-.83098-2.1625h-4.4987c.148 1.2859.93834 1.2538 2.2248 1.25h-.78385s.13266 1.2694 1.5236 1.0258c.39871.8573 1.2731.7848 1.2731.7848l1.2615.3783"
       fill-rule="evenodd"
       stroke="#000"
       stroke-width=".5"
       fill="#fff"
       id="path21" />
    <rect
       transform="matrix(1 0 .60016 .79988 0 0)"
       ry="0"
       height=".62509"
       width=".90744"
       y="1307.9"
       x="-183.36"
       id="rect23" />
  </g>
  <g
     stroke="#000"
     id="g25">
    <path
       stroke-linejoin="round"
       style="color-rendering:auto;text-decoration-color:#000000;color:#000000;isolation:auto;mix-blend-mode:normal;shape-rendering:auto;solid-color:#000000;block-progression:tb;text-decoration-line:none;image-rendering:auto;white-space:normal;text-indent:0;text-transform:none;text-decoration-style:solid"
       d="m669.3 4h-1.4931l-1.2364-2.1014c-.7073-1.2322-2.4865-1.2322-3.1944 0l-1.24 2.1014h-1.64"
       stroke-width=".491"
       fill="none"
       id="path27" />
    <g
       stroke-width=".5"
       id="g29">
      <path
         d="m673 4v-1c0-1.1046.89543-2 2-2s2 .8954 2 2v1"
         fill="none"
         id="path31" />
      <path
         d="m654.1 3.7491c.88535.014 1.9809-.7176 2.7421-2.2676.99997-.0002.94262.7257.94262.7257l-.38265 1.4658s.87555 0 1.0158.036c.14029.034.26801.1144.36189.2239.0939.1095.29205.4918.27935.6355-.074.8372-.30843 1.5822-.59932 2.5924-.0335.1336-.0993.2601-.19673.3574-.0974.097-.22389.1633-.35748.1968-.13358.033-.27275.035-.41047.035h-3.4999"
         fill="#fff"
         id="path33" />
      <g
         transform="translate(0,-1042.4)"
         id="g35">
        <path
           d="m1045.9-634h-2.5v-5h8v5h-2.75"
           transform="rotate(90)"
           fill="#fff"
           id="path37" />
        <circle
           cx="555"
           cy="1047.4"
           r="4"
           id="circle39" />
        <path
           d="m452 1045.4h7l-1 3.5h-5.25"
           fill-rule="evenodd"
           fill="#9c3"
           id="path41" />
      </g>
      <path
         d="m565 1v1"
         stroke-linecap="round"
         fill="none"
         id="path43" />
      <path
         stroke-linejoin="round"
         d="m391.5 2h7v6h-7v-6z"
         fill-rule="evenodd"
         stroke-linecap="round"
         fill="#fff"
         id="path45" />
    </g>
    <path
       style="color-rendering:auto;text-decoration-color:#000000;color:#000000;isolation:auto;mix-blend-mode:normal;shape-rendering:auto;solid-color:#000000;block-progression:tb;text-decoration-line:none;image-rendering:auto;white-space:normal;text-indent:0;text-transform:none;text-decoration-style:solid"
       d="m121.5 4v3.2248h-.5v1.5001h8v-1.5001h-.5v-3.2248h-.99999v3.2248h-1v-3.2248h-1v3.2248h-1v-3.2248h-1v3.2248h-1v-3.2248h-.99999z"
       fill-rule="evenodd"
       stroke-width=".50002"
       fill="#fff"
       id="path47" />
    <g
       stroke-width=".5"
       id="g49">
      <rect
         ry="0"
         height="4.5"
         width="4.5"
         y="3.7"
         x="144.75"
         fill="#99fcae"
         id="rect51" />
      <rect
         stroke-linejoin="round"
         ry="1"
         height="6"
         width="8"
         stroke-linecap="round"
         y="2"
         x="381"
         fill="#fc0"
         id="rect53" />
      <path
         d="m380.25 4h9.5"
         fill="none"
         id="path55" />
    </g>
    <path
       d="m383 6h4"
       stroke-width="1px"
       fill="none"
       id="path57" />
  </g>
  <g
     transform="translate(0,-1042.4)"
     id="g59">
    <rect
       stroke-linejoin="round"
       transform="rotate(90)"
       ry="0"
       height="6"
       width="8"
       stroke="#000"
       stroke-linecap="round"
       y="-18"
       x="1043.4"
       stroke-width=".5"
       fill="#fff"
       id="rect61" />
    <path
       d="m25.112 1045c-2.4763.054-4.3051 2.4661-4.3051 2.4661s1.8674 1.9191 4.3258 1.9163c2.473 0 4.1947-1.9075 4.1947-1.9075s-1.7287-2.5289-4.2155-2.4749z"
       fill-rule="evenodd"
       stroke="#000"
       stroke-width=".5"
       fill="#fff"
       id="path63" />
    <ellipse
       cy="1046.8"
       cx="25.22"
       rx="2.0803"
       ry="1.9432"
       id="ellipse65" />
    <circle
       cy="1046.4"
       cx="24.549"
       r=".75"
       fill="#fff"
       id="circle67" />
    <circle
       stroke-linejoin="round"
       stroke-width=".5"
       stroke-linecap="round"
       stroke="#000"
       cy="1047.4"
       cx="35"
       r="4"
       fill="#c8e6f3"
       id="circle69" />
  </g>
  <g
     style="fill:none;stroke:#000000;stroke-width:0.5"
     id="g73"
     transform="translate(0,-1042.4)">
    <path
       inkscape:connector-curvature="0"
       id="path75"
       d="m 31,1047.4 8,0" />
    <path
       inkscape:connector-curvature="0"
       id="path77"
       d="m 31.5,1045.4 7,0" />
    <path
       inkscape:connector-curvature="0"
       id="path79"
       d="m 31.5,1049.3 7,0" />
    <path
       inkscape:connector-curvature="0"
       id="path81"
       d="m 35.003,1051.4 c 1.1229,-1.0071 1.7908,-2.5034 1.7908,-4.0118 0,-1.5084 -0.66791,-3.0047 -1.7908,-4.0118" />
    <path
       inkscape:connector-curvature="0"
       id="path83"
       d="m 35.049,1051.4 c -1.1229,-1.0071 -1.7908,-2.5034 -1.7908,-4.0118 0,-1.5084 0.66791,-3.0047 1.7908,-4.0118" />
  </g>
  <path
     style="fill:#cccccc;stroke:#000000;stroke-width:0.5;stroke-linecap:round;stroke-linejoin:round"
     inkscape:connector-curvature="0"
     id="path85"
     d="m 48,2.5 0,5.4868 c 0,0.554 -0.44601,1 -1,1 l -4,0 c -0.55401,0 -1,-0.446 -1,-1 l 0,-5.4474 z" />
  <g
     id="g89"
     style="fill:none;stroke:#000000;stroke-width:0.45037001"
     transform="translate(0,-1042.4)">
    <path
       d="m 45,1046.5 0,4"
       id="path91"
       inkscape:connector-curvature="0" />
    <path
       d="m 46.775,1046.5 0,4"
       id="path93"
       inkscape:connector-curvature="0" />
    <path
       d="m 43.225,1046.5 0,4"
       id="path95"
       inkscape:connector-curvature="0" />
  </g>
  <path
     d="m 41,2.5 8,0"
     id="path97"
     inkscape:connector-curvature="0"
     style="fill:none;stroke:#000000;stroke-width:0.5" />
  <path
     d="m 43.459,2.1 c 0.13134,-0.2953 0.35046,-0.551 0.62223,-0.726 0.27177,-0.1749 0.59519,-0.2686 0.9184,-0.2659 0.32006,0 0.63877,0.1 0.90597,0.2759 0.2672,0.1762 0.48195,0.431 0.61046,0.7241"
     id="path99"
     inkscape:connector-curvature="0"
     style="fill:none;stroke:#000000;stroke-width:0.5;stroke-linecap:round" />
  <path
     d="m 56.023,3.5 0.97743,0 c 0.55401,0 1,0.446 1,1 l 0,3.4744 c 0,0.554 -0.44601,1 -1,1 l -4,0 c -0.55401,0 -1,-0.446 -1,-1 l 0,-3.4744 c 0,-0.554 0.44601,-1 1,-1 l 0.97862,0"
     id="path101"
     inkscape:connector-curvature="0"
     style="fill:none;stroke:#000000;stroke-width:0.5;stroke-linejoin:round" />
  <path
     d="m 55,0.5 0,5.4971"
     id="path103"
     inkscape:connector-curvature="0"
     style="fill:none;stroke:#000000;stroke-width:0.5" />
  <path
     d="M 53.162,2.3 55,0.5 56.8376,2.3377"
     id="path105"
     inkscape:connector-curvature="0"
     style="fill:none;stroke:#000000;stroke-width:0.45939001" />
  <path
     d="m 66.023,3.5 0.97743,0 c 0.55401,0 1,0.446 1,1 l 0,3.4744 c 0,0.554 -0.44601,1 -1,1 l -4,0 c -0.55401,0 -1,-0.446 -1,-1 l 0,-3.4744 c 0,-0.554 0.44601,-1 1,-1 l 0.97862,0"
     id="path107"
     inkscape:connector-curvature="0"
     style="fill:none;stroke:#000000;stroke-width:0.5;stroke-linejoin:round" />
  <path
     d="M 65,6.6 65,1.1029"
     id="path109"
     inkscape:connector-curvature="0"
     style="fill:none;stroke:#000000;stroke-width:0.5" />
  <path
     d="M 63.162,4.8 65,6.6 66.8376,4.7623"
     id="path111"
     inkscape:connector-curvature="0"
     style="fill:none;stroke:#000000;stroke-width:0.45939001" />
  <path
     style="fill:#99cc33;fill-rule:evenodd;stroke:#000000;stroke-width:0.5;stroke-linecap:square"
     inkscape:connector-curvature="0"
     id="path113"
     d="m 91.811,1.5 c 3,-0.772 3.1889,1.8636 5.6889,1.3759 l 0,4.1024 c -2.5,0.3853 -3.5708,-2.4712 -5.5708,-1.3523" />
  <g
     style="fill:none;stroke:#000000"
     id="g115"
     transform="translate(0,-1042.4)">
    <path
       style="stroke-width:0.5;stroke-linejoin:round"
       inkscape:connector-curvature="0"
       id="path117"
       d="m 86.023,1049.4 0.97743,0 c 0.55401,0 1,-0.446 1,-1 l 0,-3.4744 c 0,-0.554 -0.44601,-1 -1,-1 l -4,0 c -0.55401,0 -1,0.446 -1,1 l 0,3.4744 c 0,0.554 0.44601,1 1,1 l 0.97862,0" />
    <path
       style="stroke-width:0.5"
       inkscape:connector-curvature="0"
       id="path119"
       d="m 85,1045.9 0,5.4971" />
    <path
       style="stroke-width:0.45939001"
       inkscape:connector-curvature="0"
       id="path121"
       d="m 83.162,1047.7 1.838,-1.8 1.8376,1.8377" />
    <path
       style="stroke-width:0.5;stroke-linejoin:round"
       inkscape:connector-curvature="0"
       id="path123"
       d="m 76.023,1049.4 0.97743,0 c 0.55401,0 1,-0.446 1,-1 l 0,-3.4744 c 0,-0.554 -0.44601,-1 -1,-1 l -4,0 c -0.55401,0 -1,0.446 -1,1 l 0,3.4744 c 0,0.554 0.44601,1 1,1 l 0.97862,0" />
    <path
       style="stroke-width:0.45939001"
       inkscape:connector-curvature="0"
       id="path125"
       d="m 73.162,1047.2 1.838,-1.8 1.8376,1.8377" />
    <path
       style="stroke-width:0.5"
       inkscape:connector-curvature="0"
       id="path127"
       d="m 75,1045.4 0,3.0821 c 0,2.915 -2,2.915 -2.9744,2.9234" />
    <path
       style="stroke-width:0.5"
       inkscape:connector-curvature="0"
       id="path129"
       d="m 75,1045.4 0,3.0821 c 0,2.915 2,2.915 2.9744,2.9234" />
  </g>
  <g
     style="stroke:#000000"
     id="g131"
     transform="translate(0,-1042.4)">
    <path
       style="fill:#ffffff;fill-rule:evenodd;stroke-width:0.50002003"
       inkscape:connector-curvature="0"
       id="path133"
       d="m 125,1043.4 -4,2.0001 0,1.0001 8,0 0,-1.0001 -4,-2 z" />
    <g
       style="stroke-width:0.5;stroke-linecap:round;stroke-linejoin:round"
       id="g135">
      <rect
         style="fill:#ffffff"
         id="rect137"
         x="130.98"
         y="-1050.4"
         width="8.0333004"
         height="6.5149002"
         transform="scale(1,-1)" />
      <rect
         style="fill:#ff6600"
         id="rect139"
         x="131.03999"
         y="1044"
         width="7.9155998"
         height="1.3808" />
      <circle
         style="fill:#ffffff"
         id="circle141"
         r="2.5042"
         cx="136.72"
         cy="1049.1" />
    </g>
  </g>
  <g
     style="stroke:#000000;stroke-width:0.5"
     id="g143">
    <path
       style="fill:none"
       inkscape:connector-curvature="0"
       id="path145"
       d="m 135.83,6.3 0.89671,0.4009 1.4835,-0.938" />
    <g
       id="g147"
       transform="translate(0,-1042.4)">
      <path
         style="fill:none"
         inkscape:connector-curvature="0"
         id="path149"
         d="m 103.51,1042.9 c -0.13513,0.478 -0.0337,1.0169 0.26602,1.4131 0.29971,0.3962 0.7907,0.6404 1.2875,0.6404 0.49676,0 0.98775,-0.2442 1.2875,-0.6404 0.2997,-0.3962 0.40115,-0.9351 0.26602,-1.4131" />
      <ellipse
         style="fill:#ff9674;fill-opacity:1;stroke-linecap:square;stroke-linejoin:round"
         id="ellipse151"
         cx="105"
         cy="1044.6"
         ry="1.0418"
         rx="1.5282" />
      <g
         style="fill:none"
         id="g153">
        <path
           inkscape:connector-curvature="0"
           id="path155"
           d="m 103.24,1046.8 c -1.0145,-0.019 -1.0705,0.5103 -2.7384,0.5169" />
        <path
           inkscape:connector-curvature="0"
           id="path157"
           d="m 106.76,1046.8 c 1.0145,-0.019 1.0705,0.5103 2.7385,0.5169" />
        <path
           inkscape:connector-curvature="0"
           id="path159"
           d="m 103.55,1048.4 c -3.5455,-0.063 -2,0.9814 -2.0307,2.9573" />
        <path
           inkscape:connector-curvature="0"
           id="path161"
           d="m 106.51,1048.4 c 3.4905,-0.08 2,0.9814 2.0307,2.9573" />
        <path
           inkscape:connector-curvature="0"
           id="path163"
           d="m 103.53,1046.4 c -1,0.019 -2,-0.9814 -2.0307,-2.9573" />
        <path
           inkscape:connector-curvature="0"
           id="path165"
           d="m 106.51,1046.3 c 1,0.019 2,-0.9814 2.0307,-2.9573" />
      </g>
      <path
         inkscape:connector-curvature="0"
         style="fill:#ff9674;fill-opacity:1;fill-rule:evenodd;stroke-linecap:round;stroke-linejoin:round"
         id="path167"
         d="m 102.91,1050.2 -0.59544,-3.5234 c 0.68786,-1.3324 1.0985,-1.253 2.6974,-1.243 1.5989,-0.01 1.9905,-0.089 2.7341,1.243 l -0.65148,3.5877 c -1.0922,1.0795 -3.0922,1.0795 -4.1846,-0.064 z" />
      <path
         style="fill:none"
         inkscape:connector-curvature="0"
         id="path169"
         d="m 105,1051.4 0,-6" />
      <path
         d="m 435.00003,1051.8316 -3.78165,-2.1833 0,-4.3667 3.78165,-2.1833 3.78165,2.1833 0,4.3667 z"
         inkscape:randomized="0"
         inkscape:rounded="0"
         inkscape:flatsided="true"
         sodipodi:arg2="2.0943951"
         sodipodi:arg1="1.5707963"
         sodipodi:r2="3.7816467"
         sodipodi:r1="4.3666701"
         sodipodi:cy="1047.465"
         sodipodi:cx="435.00003"
         sodipodi:sides="6"
         id="path6186"
         style="fill:#ffffff;fill-opacity:1;stroke:#000000;stroke-width:0.436667;stroke-linecap:round;stroke-linejoin:round;stroke-miterlimit:4;stroke-dasharray:none;stroke-dashoffset:0;stroke-opacity:1"
         sodipodi:type="star" />
      <path
         sodipodi:nodetypes="ccccccc"
         inkscape:connector-curvature="0"
         id="path6188"
         d="m 434.98664,1047.4784 8e-5,4.3665 0,0 -3.78167,-2.1832 -6e-5,-4.3667 0,0 z"
         style="fill:#e0e8e7;fill-opacity:1;stroke:#000000;stroke-width:0.436667;stroke-linecap:round;stroke-linejoin:round;stroke-miterlimit:4;stroke-dasharray:none;stroke-dashoffset:0;stroke-opacity:1" />
      <path
         sodipodi:nodetypes="cc"
         inkscape:connector-curvature="0"
         inkscape:original-d="m 435.01681,1047.4675 3.71351,-2.144"
         inkscape:path-effect="#path-effect6192"
         id="path6190"
         d="m 435.01681,1047.4675 3.71351,-2.144"
         style="fill:none;fill-rule:evenodd;stroke:#000000;stroke-width:0.5;stroke-linecap:butt;stroke-linejoin:miter;stroke-miterlimit:4;stroke-dasharray:none;stroke-opacity:1" />
      <path
         style="fill:none;fill-rule:evenodd;stroke:#000000;stroke-width:0.5;stroke-linecap:butt;stroke-linejoin:miter;stroke-miterlimit:4;stroke-dasharray:none;stroke-opacity:1"
         d="m 433.10211,1046.2991 3.71351,-2.144"
         id="path6194"
         inkscape:path-effect="#path-effect6196"
         inkscape:original-d="m 433.10211,1046.2991 3.71351,-2.144"
         inkscape:connector-curvature="0"
         sodipodi:nodetypes="cc" />
    </g>
    <rect
       style="fill:#99fcae"
       id="rect171"
       x="302.5"
       y="2.5"
       width="5"
       height="5"
       ry="0" />
  </g>
  <g
     transform="matrix(.015358 0 0 .015358 214.06 -4)"
     id="g173">
    <path
       d="m-86.985 789.57c-6.1021-2.458-8.6465-14.336-8.6732-40.49-.02208-21.653 1.4985-31.065 8.3385-51.612 12.978-38.986 41.4-72.773 76.584-91.04l10.058-5.2219-5.0579-4.1207c-10.789-8.79-20.393-23.949-24.746-39.062-1.8623-6.4645-2.2769-10.271-2.2269-20.443.0533-10.859.42617-13.616 2.8397-21 7.5399-23.068 20.745-38.576 41.576-48.826l9.5-4.6744-4.2273-6.3067c-8.4643-12.628-11.098-27.791-7.2833-41.93 4.2454-15.734 12.733-26.073 27.298-33.251 18.815-9.2736 38.611-9.2736 57.426 0 14.565 7.1787 23.052 17.518 27.298 33.251 3.8149 14.138 1.181 29.302-7.2833 41.93l-4.2273 6.3067 9.5 4.6744c20.831 10.25 34.036 25.757 41.576 48.826 2.4135 7.384 2.7863 10.141 2.8397 21 .05 10.173-.36464 13.979-2.2269 20.443-4.3535 15.112-13.957 30.272-24.746 39.062l-5.0579 4.1207 10.058 5.2219c35.184 18.267 63.606 52.054 76.584 91.04 6.84 20.547 8.3606 29.959 8.3385 51.612-.0272 26.65-2.5648 38.105-8.9823 40.545-3.2302 1.2281-302.02 1.175-305.07-.0542l-.000004.00001z"
       id="path175" />
    <path
       d="m208.44 769.83c.42297-1.5125.73972-11.075.70389-21.25-.0726-20.618-1.7574-31.251-7.5562-47.688-14.2-40.25-47.259-73.644-86.879-87.759-9.9597-3.5483-11.779-4.8587-12.565-9.049-.97839-5.2153 1.256-7.7 11.267-12.529 31.243-15.071 42.623-53.871 24.812-84.593-4.8302-8.3315-16.117-18.591-25.647-23.314-7.9583-3.9435-12.1-4.9976-25.971-6.6102-5.1383-.59737-8.5289-3.1444-9.538-7.165-1.0482-4.1766 1.5113-7.4582 8.6019-11.028 8.0467-4.0516 13.362-9.1852 16.838-16.263 2.3597-4.8043 2.7014-6.7017 2.7014-15 0-8.3641-.33238-10.177-2.7798-15.161-3.4476-7.0204-8.99-12.123-17.597-16.201-6.3253-2.997-7.1859-3.1382-19.123-3.1382-11.938 0-12.798.14122-19.123 3.1382-8.6068 4.078-14.149 9.1809-17.597 16.201-2.4474 4.9837-2.7798 6.7964-2.7798 15.161 0 8.2983.34172 10.196 2.7014 15 3.4765 7.078 8.7916 12.212 16.838 16.263 7.0906 3.5702 9.6502 6.8519 8.6019 11.028-1.0091 4.0205-4.3997 6.5676-9.538 7.165-13.871 1.6126-18.012 2.6667-25.971 6.6102-9.5298 4.7222-20.816 14.982-25.647 23.314-7.2738 12.546-9.9791 27.842-7.5117 42.47 2.9464 17.468 15.719 34.113 32.324 42.123 10.011 4.8292 12.245 7.3139 11.267 12.529-.78611 4.1904-2.6057 5.5008-12.565 9.049-39.62 14.115-72.679 47.509-86.879 87.759-5.7988 16.437-7.4836 27.07-7.5562 47.688-.0358 10.175.28092 19.738.7039 21.25l.76905 2.75h141.96 141.96l.76905-2.75z"
       id="path177" />
  </g>
  <g
     transform="matrix(.013898 0 0 .013898 217.04 -4.8)"
     id="g179">
    <path
       d="m186 482.9c-29.18-1.53-57.03-8.5-78.35-19.6-10.411-5.43-13.65-8.39-13.65-12.48.000002-1.3811 4.2714-12.318 9.4921-24.304l9.4921-21.793-8.9235-20.483-8.923-20.48-18.239-22.33c-10.031-12.28-18.697-22.92-19.257-23.65s-5.775-39.35-11.588-85.81l-10.569-84.48-6.613-2.22c-8.08-2.72-13.149-6.46-17.016-12.54-6.8265-10.75-7.4802-22.35-1.8982-33.687 5.7162-11.611 16.183-17.819 30.043-17.819 13.86-.000002 24.327 6.2086 30.043 17.819 6.6247 13.457 4.6681 25.645-6.433 40.074-.57742.75052 9.2491 21.998 27.992 60.526l28.882 59.37 4.1912-72.953c2.3051-40.124 4.2212-74.407 4.2579-76.183.0569-2.7502-.48993-3.5166-3.6832-5.1627-6.7324-3.4704-12.027-8.9088-15.458-15.879-8.4036-17.07-1.0212-36.417 17.208-45.097 11.28-5.3709 25.128-2.9333 35.708 6.2854 2.4937 2.1728 5.5492 6.3908 7.5 10.354 2.8406 5.77 3.292 7.7212 3.292 14.229-.00001 6.5079-.45141 8.459-3.292 14.229-1.9344 3.9294-4.9567 8.1119-7.3289 10.142l-4.0369 3.4554 24.829 72.071c13.656 39.639 25.074 72.078 25.373 72.087.29949.009 6.8534-36.316 14.564-80.721l14.02-80.737-4.2925-2.8432c-9.57-6.346-14.82-16.161-14.83-27.715-.0117-13.445 7.4111-24.618 20.493-30.847 7.786-3.7073 18.214-3.7073 26 0 8.1508 3.881 13.45 9.0046 17.208 16.639 2.8414 5.7718 3.2911 7.7163 3.2854 14.208-.0101 11.554-5.2636 21.368-14.829 27.705l-4.2925 2.8432 14.02 80.737c7.7108 44.405 14.265 80.73 14.564 80.721.2995-.009 11.718-32.447 25.373-72.087l24.829-72.071-4.0369-3.4554c-2.3722-2.0305-5.3944-6.213-7.3289-10.142-8.4036-17.07-1.0212-36.417 17.208-45.097 7.786-3.7073 18.214-3.7073 26 0 8.1508 3.881 13.45 9.0046 17.208 16.639 2.8406 5.77 3.292 7.7212 3.292 14.229.00001 6.5079-.45141 8.459-3.292 14.229-3.4312 6.9698-8.7256 12.408-15.458 15.879-3.1933 1.6461-3.7401 2.4125-3.6832 5.1627.0367 1.7763 1.9528 36.059 4.2579 76.183l4.1912 72.953 28.882-59.37c18.743-38.528 28.569-59.776 27.992-60.526-11.101-14.429-13.058-26.617-6.433-40.074 5.7158-11.61 16.184-17.819 30.043-17.819 13.86-.000002 24.327 6.2086 30.043 17.819 5.582 11.339 4.9283 22.94-1.8978 33.683-3.8673 6.0859-8.9368 9.8221-17.017 12.541l-6.6124 2.2253-10.569 84.478c-5.8132 46.463-11.028 85.076-11.588 85.807-.56019.73138-9.226 11.377-19.257 23.658l-18.239 22.328-8.9235 20.483-8.9235 20.483 9.4921 21.793c5.2207 11.986 9.4921 22.923 9.4921 24.304.000010 4.0951-3.2393 7.0564-13.654 12.482-16.514 8.6037-36.606 14.695-59.288 17.975-8.5164 1.2314-23.606 1.564-78.057 1.7208-37.125.10686-69.975.0645-73-.094l.00001-.000010z"
       transform="translate(319.92,446.86)"
       id="path181" />
    <path
       d="m260.08 68.322c5.1828-3.4927 7.9217-8.2385 7.9217-13.726.000010-12.207-14.266-20.339-24.078-13.726-5.1828 3.4927-7.9217 8.2385-7.9217 13.726-.00001 12.207 14.266 20.339 24.078 13.726l.00001.000002z"
       transform="translate(319.92,446.86)"
       id="path183" />
    <path
       d="m372.08 88.322c5.1828-3.4927 7.9217-8.2385 7.9217-13.726.000010-5.4877-2.7389-10.234-7.9217-13.726-9.8128-6.6128-24.078 1.5195-24.078 13.726.000010 12.207 14.266 20.339 24.078 13.726l.00001.000002z"
       transform="translate(319.92,446.86)"
       id="path185" />
    <path
       d="m148.08 88.322c10.64-7.1703 10.64-20.282.000010-27.452-9.8128-6.6128-24.078 1.5195-24.078 13.726 0 12.207 14.266 20.339 24.078 13.726l-.000010.000002z"
       transform="translate(319.92,446.86)"
       id="path187" />
    <path
       d="m471.98 127.84c5.1751-2.6001 8.0199-7.4769 8.0199-13.748.000010-9.2271-6.4733-15.497-16-15.497s-16 6.2698-16 15.497c.000010 9.2271 6.4733 15.497 16 15.497 2.475.00001 6.066-.7868 7.9801-1.7484h-.00001z"
       transform="translate(319.92,446.86)"
       id="path189" />
    <path
       d="m47.98 127.84c10.821-5.4368 10.821-22.06 0-27.497-4.4519-2.2367-11.508-2.2367-15.96 0-10.821 5.4368-10.821 22.06 0 27.497 1.914.96164 5.5051 1.7484 7.9801 1.7484 2.475.00001 6.066-.7868 7.9801-1.7484z"
       transform="translate(319.92,446.86)"
       id="path191" />
    <path
       d="m230.92 268.01c3.6207-1.9749 8.608-5.2773 11.083-7.3386 8.9658-7.4673 11.334-7.5581 19.135-.73408 4.4496 3.8924 18.591 12.333 19.296 11.518.47199-.54625-27.864-162.85-28.431-162.85-.27501-.00027-6.7535 36.11-14.397 80.246-7.6432 44.136-14.104 80.809-14.357 81.497-.70957 1.9268.55311 1.5415 7.6706-2.3407v-.000010z"
       transform="translate(319.92,446.86)"
       id="path193" />
    <path
       d="m366.53 274.85c-.32586-3.7125-2.3771-38.925-4.5584-78.25-2.1812-39.325-4.0794-72.689-4.2181-74.142-.14627-1.5326-11.339 29.543-26.654 74-14.521 42.153-26.634 77.276-26.918 78.051-.8598 2.3452 12.983.49773 22.792-3.0418 12.509-4.5141 14.338-4.6336 18.783-1.228 3.7119 2.844 19.007 11.276 20.556 11.331.44582.0161.54395-3.0083.21809-6.7208l.000010.000010z"
       transform="translate(319.92,446.86)"
       id="path195" />
    <path
       d="m145.27 277.98c3.9738-1.9912 9.3754-5.189 12.004-7.1061 5.6083-4.0909 6.8724-4.0529 19.749.59391 9.8086 3.5396 23.652 5.3871 22.792 3.0418-.28415-.77507-12.397-35.898-26.918-78.051-15.314-44.457-26.507-75.533-26.654-74-.13869 1.4532-2.0368 34.817-4.2181 74.142-2.1812 39.325-4.2325 74.538-4.5584 78.25-.32586 3.7125-.32898 6.75-.007 6.75.32204-.00001 3.8368-1.6292 7.8106-3.6205l-.00001-.00001z"
       transform="translate(319.92,446.86)"
       id="path197" />
    <path
       d="m439.94 232.1c4.4003-35.143 7.8688-64.028 7.7078-64.189-.25193-.25193-55.916 113.73-57.431 117.6-.46629 1.1912 1.073 1.2843 9.8664.59695 17.731-1.386 16.73-1.5786 24.47 4.7073 3.8141 3.0973 7.0361 5.5302 7.16 5.4062.12391-.12393 3.8256-28.978 8.2259-64.121l-.000010-.00001z"
       transform="translate(319.92,446.86)"
       id="path199" />
    <path
       d="m86.55 285.77c1.9861-1.0412 3.9855-1.0943 9.4269-.25001 9.7051 1.5058 18.373 1.4186 17.746-.17847-1.4883-3.7924-57.124-117.68-57.369-117.44-.1611.16111 3.2878 28.844 7.6641 63.74 4.3764 34.896 7.9624 63.815 7.9691 64.264.0066.44898 2.7187-1.351 6.0268-4s7.149-5.411 8.5354-6.1379l.000002.000010z"
       transform="translate(319.92,446.86)"
       id="path201" />
    <path
       d="m113.07 346.04c90.159-31.009 187.7-31.007 277.87.006 4.094 1.408 7.7647 2.2198 8.157 1.8038 2.4263-2.5726 26.85-32.848 26.829-33.256-.0145-.27501-3.2262-3.0081-7.1371-6.0736l-7.1108-5.5736-5.5908.91885c-17.341 2.8502-42.847-2.7501-61.382-13.478l-6.7914-3.9306-7.7086 2.53c-25.172 8.2617-50.439 4.7571-72.959-10.12l-5.25-3.4682-5.25 3.4682c-12.753 8.4245-27.442 13.427-42.299 14.406-10.355.68197-19.357-.57645-30.659-4.286l-7.7085-2.53-6.7915 3.9306c-18.535 10.728-44.041 16.328-61.382 13.478l-5.5908-.91885-7.107 5.5736c-3.9089 3.0655-7.018 5.8919-6.9092 6.2809.17058.61002 26.908 33.793 27.229 33.793.0651-.00001 3.4596-1.1492 7.5435-2.5538v-.000010z"
       transform="translate(319.92,446.86)"
       id="path203" />
    <path
       d="m151.2 384.76c66.181-21.421 135.42-21.421 201.6-.000010 8.4153 2.7238 17.267 5.7953 19.67 6.8254 3.166 1.3571 4.5066 1.5479 4.8678.69281.27419-.64906 3.177-7.31 6.4506-14.802l5.9521-13.622-3.6205-1.1581c-66.974-21.422-125.78-26.955-191.62-18.029-24.828 3.3661-47.343 8.6638-76.62 18.029l-3.6205 1.158 5.9521 13.622c3.2737 7.4921 6.1765 14.153 6.4506 14.802.36123.85511 1.7018.66431 4.8678-.69281 2.4031-1.0301 11.255-4.1015 19.67-6.8254v.00001z"
       transform="translate(319.92,446.86)"
       fill="#fff"
       id="path205" />
    <path
       d="m151.5 426.08c19.551-4.8278 40.859-8.5762 60.5-10.643 16.286-1.7136 63.714-1.7136 80 0 27.32 2.8746 65.824 10.761 85.75 17.562 3.9875 1.3611 7.25 2.2933 7.25 2.0714.000010-.22186-2.1914-5.4826-4.8697-11.69-5.7949-13.431-4.8666-12.782-30.355-21.236-17.345-5.7528-37.266-10.235-58.775-13.224-17.526-2.4355-60.474-2.4355-78 0-21.51 2.9891-41.431 7.4712-58.775 13.224-25.488 8.4539-24.56 7.8044-30.355 21.236-2.6784 6.2078-4.8697 11.469-4.8697 11.69 0 .22189 3.2625-.71025 7.25-2.0714s15.35-4.475 25.25-6.9196l.00001.000010z"
       transform="translate(319.92,446.86)"
       id="path207" />
    <path
       d="m337 463.28c13.855-2.006 22.504-4.0225 33.865-7.8955l9.3651-3.1927-6.8651-2.326c-11.195-3.793-37.782-10.044-53.865-12.665-24.902-4.0577-38.429-5.0748-67.5-5.0748-29.071.00001-42.598 1.017-67.5 5.0748-16.083 2.6208-42.67 8.8722-53.865 12.665l-6.8651 2.326 9.3651 3.2098c15.148 5.1917 33.458 8.4818 52.865 9.4989 3.025.15855 35.875.20085 73 .094 54.334-.15635 69.548-.49078 78-1.7145l-.000010-.000010z"
       transform="translate(319.92,446.86)"
       id="path209" />
  </g>
  <g
     transform="matrix(.56135 0 0 .56135 196.25 -615.85)"
     id="g211">
    <g
       transform="translate(-29.537,456.12)"
       id="g213">
      <path
         d="m49.871 649.31c0 1.302-.52775 2.4808-1.381 3.3341-.42663.42663.47895.46597-.06912 1.4098-.54808.94388-2.5498 1.4761-3.2008 1.4761-.65102 0-2.7945-.62336-3.3746-1.5672-.58013-.94387.40309-.89204-.02354-1.3187-.85326-.85326-1.381-2.032-1.381-3.3341 0-1.302.52776-2.4808 1.381-3.3341.66918-.66919 1.5386-1.1382 2.5106-1.3094.26739-.0471.58813-.75542.86902-.75542.28581 0 .5201.70919.79189.75791.96638.17323 1.8306.6409 2.4966 1.3069.85326.85326 1.381 2.032 1.381 3.3341z"
         stroke="#000"
         id="path215" />
      <path
         d="m49.871 649.31c-1.9068 6.1489-3.5463 1.7438-4.7151 1.5953-1.2927.1601-3.0865 4.7481-4.7151-1.5953-.92618-3.6075.9152-4.5081 4.7151-4.7151 4.4684-.24339 5.799 1.2196 4.7151 4.7151z"
         transform="matrix(.74008 0 0 .43158 11.671 369.95)"
         fill="#fff"
         id="path217" />
      <circle
         cx="43.478"
         cy="650.04"
         r=".45337"
         transform="matrix(.90336 0 0 .90336 3.9643 62.556)"
         id="circle219" />
      <circle
         cx="43.478"
         cy="650.04"
         r=".45337"
         transform="matrix(.90336 0 0 .90336 7.6187 62.493)"
         id="circle221" />
    </g>
  </g>
  <g
     stroke="#000"
     transform="matrix(1.0983 0 0 1.0983 -17.877 -1144.9)"
     id="g223">
    <path
       d="m184.01 1050 2.4233-2.7798-1.4271.4982z"
       stroke-width=".45684"
       id="path225" />
    <path
       stroke-linejoin="round"
       d="m181.31 1046.8 1.7306.8415 1.0157 2.2477.72518-1.5537 2.1281 1.1741 1.2278-5.7943z"
       stroke-width=".45684"
       fill="#fff"
       id="path227" />
    <path
       d="m183.32 1047.5 4.7137-3.745-3.3429 4.4039-.5616 1.3138"
       stroke-linecap="square"
       stroke-width=".22842px"
       fill="#d4d4d4"
       id="path229" />
  </g>
  <g
     transform="matrix(-.16438 -.16438 -.16438 .16438 375.92 -156.24)"
     id="g231">
    <path
       d="m65 25 7 11v2l-6.9517-3.3381"
       transform="translate(0,1012.4)"
       stroke="#000"
       stroke-width="2"
       fill="#fff"
       id="path233" />
    <path
       d="m55 1037.4-7 11v2l7.1449-3.4347"
       stroke="#000"
       stroke-width="2"
       fill="#fff"
       id="path235" />
    <path
       d="m55 35c-3 6 1.0421 11.886 5.0421 15.886 4-4 7.958-9.886 4.958-15.886"
       transform="translate(0,1012.4)"
       fill="#ff8f1c"
       id="path237" />
    <path
       d="m57 1047.4c-2.6148 4.5722.04207 9.0575 3.0421 13.058 3-4 5.6569-8.4853 2.9579-13.058"
       fill="#fff742"
       id="path239" />
    <path
       d="m54.903 12.58.097 22.42h10l-.097-22.42c-.01078-2.5024-5-7-5-7s-5.0127 4.0629-5 7z"
       transform="translate(0,1012.4)"
       stroke="#000"
       stroke-width="2"
       fill="#fff"
       id="path241" />
  </g>
  <path
     d="m193.14 6.9 2.319-2.373"
     stroke="#000"
     stroke-width=".46495"
     fill="none"
     id="path243" />
  <g
     transform="matrix(.49813 0 0 .49813 120.6 -319.98)"
     id="g245">
    <path
       d="m49.871 649.31c0 1.302-.52775 2.4808-1.381 3.3341-.42663.42663.47895.46597-.06912 1.4098-.54808.94388-2.5498 1.4761-3.2008 1.4761-.65102 0-2.7945-.62336-3.3746-1.5672-.58013-.94387.40309-.89204-.02354-1.3187-.85326-.85326-1.381-2.032-1.381-3.3341 0-1.302.52776-2.4808 1.381-3.3341.66918-.66919 1.5386-1.1382 2.5106-1.3094.26739-.0471.58813-.75542.86902-.75542.28581 0 .5201.70919.79189.75791.96638.17323 1.8306.6409 2.4966 1.3069.85326.85326 1.381 2.032 1.381 3.3341z"
       stroke="#000"
       id="path247" />
    <path
       d="m49.871 649.31c-1.9068 6.1489-3.5463 1.7438-4.7151 1.5953-1.2927.1601-3.0865 4.7481-4.7151-1.5953-.92618-3.6075.9152-4.5081 4.7151-4.7151 4.4684-.24339 5.799 1.2196 4.7151 4.7151z"
       transform="matrix(.74008 0 0 .43158 11.671 369.95)"
       fill="#fff"
       id="path249" />
    <circle
       cx="43.478"
       cy="650.04"
       r=".45337"
       transform="matrix(.90336 0 0 .90336 3.9643 62.556)"
       id="circle251" />
    <circle
       cx="43.478"
       cy="650.04"
       r=".45337"
       transform="matrix(.90336 0 0 .90336 7.6187 62.493)"
       id="circle253" />
  </g>
  <rect
     ry="0"
     height="4.5"
     width="4.5"
     stroke="#000"
     y="3.5"
     x="164.75"
     stroke-width=".5"
     fill="#99fcae"
     id="rect255" />
  <g
     transform="matrix(.49813 0 0 .49813 140.6 -319.98)"
     id="g257">
    <path
       d="m49.871 649.31c0 1.302-.52775 2.4808-1.381 3.3341-.42663.42663.47895.46597-.06912 1.4098-.54808.94388-2.5498 1.4761-3.2008 1.4761-.65102 0-2.7945-.62336-3.3746-1.5672-.58013-.94387.40309-.89204-.02354-1.3187-.85326-.85326-1.381-2.032-1.381-3.3341 0-1.302.52776-2.4808 1.381-3.3341.66918-.66919 1.5386-1.1382 2.5106-1.3094.26739-.0471.58813-.75542.86902-.75542.28581 0 .5201.70919.79189.75791.96638.17323 1.8306.6409 2.4966 1.3069.85326.85326 1.381 2.032 1.381 3.3341z"
       stroke="#000"
       id="path259" />
    <path
       d="m49.871 649.31c-1.9068 6.1489-3.5463 1.7438-4.7151 1.5953-1.2927.1601-3.0865 4.7481-4.7151-1.5953-.92618-3.6075.9152-4.5081 4.7151-4.7151 4.4684-.24339 5.799 1.2196 4.7151 4.7151z"
       transform="matrix(.74008 0 0 .43158 11.671 369.95)"
       fill="#fff"
       id="path261" />
    <circle
       cx="43.478"
       cy="650.04"
       r=".45337"
       transform="matrix(.90336 0 0 .90336 3.9643 62.556)"
       id="circle263" />
    <circle
       cx="43.478"
       cy="650.04"
       r=".45337"
       transform="matrix(.90336 0 0 .90336 7.6187 62.493)"
       id="circle265" />
  </g>
  <g
     transform="translate(0,-1042.4)"
     stroke="#000"
     stroke-width=".5"
     fill="none"
     id="g267">
    <path
       d="m161 1051.6h8"
       id="path269" />
    <path
       d="m163 1048.4v3"
       id="path271" />
    <path
       d="m167 1050.4v1"
       id="path273" />
  </g>
  <g
     transform="translate(0,-1042.4)"
     stroke="#000"
     stroke-width=".5"
     fill="#99fcae"
     id="g275">
    <rect
       ry="0"
       height="4.5"
       width="4.5"
       y="1046.1"
       x="174.75"
       id="rect277" />
    <rect
       ry="0"
       height="4.5"
       width="4.5"
       y="1045.5"
       x="244.77"
       id="rect279" />
    <rect
       ry="0"
       height="7.5"
       width="7.5"
       y="1043.6"
       x="151.25"
       id="rect281" />
  </g>
  <g
     transform="matrix(.47936 0 0 .47936 133.35 -306.52)"
     id="g283">
    <path
       d="m49.871 649.31c0 1.302-.52775 2.4808-1.381 3.3341-.42663.42663.47895.46597-.06912 1.4098-.54808.94388-2.5498 1.4761-3.2008 1.4761-.65102 0-2.7945-.62336-3.3746-1.5672-.58013-.94387.40309-.89204-.02354-1.3187-.85326-.85326-1.381-2.032-1.381-3.3341 0-1.302.52776-2.4808 1.381-3.3341.66918-.66919 1.5386-1.1382 2.5106-1.3094.26739-.0471.58813-.75542.86902-.75542.28581 0 .5201.70919.79189.75791.96638.17323 1.8306.6409 2.4966 1.3069.85326.85326 1.381 2.032 1.381 3.3341z"
       stroke="#000"
       id="path285" />
    <path
       d="m49.871 649.31c-1.9068 6.1489-3.5463 1.7438-4.7151 1.5953-1.2927.1601-3.0865 4.7481-4.7151-1.5953-.92618-3.6075.9152-4.5081 4.7151-4.7151 4.4684-.24339 5.799 1.2196 4.7151 4.7151z"
       transform="matrix(.74008 0 0 .43158 11.671 369.95)"
       fill="#fff"
       id="path287" />
    <circle
       cx="43.478"
       cy="650.04"
       r=".45337"
       transform="matrix(.90336 0 0 .90336 3.9643 62.556)"
       id="circle289" />
    <circle
       cx="43.478"
       cy="650.04"
       r=".45337"
       transform="matrix(.90336 0 0 .90336 7.6187 62.493)"
       id="circle291" />
  </g>
  <path
     d="m238 6.5 1.2-1.1416-1.2-1.1415"
     stroke="#000"
     stroke-width=".5"
     fill="none"
     id="path293" />
  <g
     transform="matrix(.095964 0 0 .095472 233.03 0)"
     id="g295">
    <circle
       cx="18.118"
       cy="8.159"
       r="8.159"
       id="circle297" />
    <path
       d="m8.472 95.426c0 2.524 1.8044 4.5466 4.3284 4.5466 2.529 0 4.6033-2.0226 4.6033-4.5466l-.14242-38.885h2.8769l-.02419 38.885c0 2.524 1.8297 4.574 4.3557 4.574s4.3274-2.05 4.3274-4.574l.12803-66.158h2.7622l-.14404 24.38c-.02235 3.7827 5.9659 3.9277 5.9519 0l.21606-24.936c.047-5.418-3.688-10.692-10.027-10.692l-18.288-.008c-5.777 0-9.396 4.71-9.396 10.587v25.05c0 4.2899 5.8358 3.4206 5.8208.0362l-.108-24.452 2.7682.036z"
       id="path299" />
  </g>
  <g
     fill="#fff"
     transform="translate(0,-1042.4)"
     id="g301">
    <path
       d="m275.11 1045c-2.4763.054-4.3051 2.4661-4.3051 2.4661s1.8674 1.9191 4.3258 1.9163c2.473 0 4.1947-1.9075 4.1947-1.9075s-1.7287-2.5289-4.2155-2.4749z"
       fill-rule="evenodd"
       stroke="#000"
       stroke-width=".5"
       id="path303" />
    <circle
       cx="274.55"
       cy="1046.4"
       r=".75"
       id="circle305" />
    <path
       d="m285.11 1045c-2.4763.054-4.3051 2.4661-4.3051 2.4661s1.8674 1.9191 4.3258 1.9163c2.473 0 4.1947-1.9075 4.1947-1.9075s-1.7287-2.5289-4.2155-2.4749z"
       fill-rule="evenodd"
       stroke="#000"
       stroke-width=".5"
       id="path307" />
  </g>
  <g
     transform="translate(0,-1042.4)"
     id="g309">
    <ellipse
       cy="1046.8"
       cx="285.22"
       rx="2.0803"
       ry="1.9432"
       id="ellipse311" />
    <circle
       cy="1047.1"
       cx="284.59"
       r=".75"
       fill="#fff"
       id="circle313" />
    <path
       d="m295.11 1045c-2.4763.054-4.3051 2.4661-4.3051 2.4661s1.8674 1.9191 4.3258 1.9163c2.473 0 4.1947-1.9075 4.1947-1.9075s-1.7287-2.5289-4.2155-2.4749z"
       fill-rule="evenodd"
       stroke="#000"
       stroke-width=".5"
       fill="#fff"
       id="path315" />
    <ellipse
       cy="1046.8"
       cx="295.22"
       rx="2.0803"
       ry="1.9432"
       id="ellipse317" />
    <circle
       cy="1046.4"
       cx="294.55"
       r=".75"
       fill="#fff"
       id="circle319" />
  </g>
  <g
     transform="translate(0,-1042.4)"
     stroke="#000"
     stroke-width=".5"
     fill="none"
     id="g321">
    <path
       d="m275 1049.4v1.8028"
       id="path323" />
    <path
       d="m276.72 1049.3.60563 1.4732"
       id="path325" />
    <path
       d="m278.41 1048.4.96056 1.0394"
       id="path327" />
    <path
       d="m273.28 1049.3-.60563 1.4732"
       id="path329" />
    <path
       d="m271.7 1048.3-.96056 1.0394"
       id="path331" />
  </g>
  <g
     transform="translate(0,-1042.4)"
     id="g333">
    <g
       stroke-width=".5"
       stroke="#000"
       id="g335">
      <path
         d="m285.03 1045c-2.4763.054-3.8257 1.965-3.8257 1.965 3.0199.074 4.476 0 7.6863-.08 0 0-1.3738-1.9374-3.8605-1.8834z"
         fill-rule="evenodd"
         fill="#fff"
         id="path337" />
      <rect
         ry="0"
         height="5"
         width="5"
         y="1044.9"
         x="322.5"
         fill="#99fcae"
         id="rect339" />
      <rect
         ry="0"
         height="5"
         width="5"
         y="1044.9"
         x="312.5"
         fill="#99fcae"
         id="rect341" />
    </g>
    <rect
       opacity=".5"
       ry="0"
       height="3.6547"
       width="4.5684"
       y="1046.1"
       x="312.65"
       fill="url(#h)"
       id="rect343" />
    <rect
       opacity=".5"
       ry="0"
       height="1.1421"
       width="4.5684"
       y="1048.5"
       x="322.7"
       fill="url(#k)"
       id="rect345" />
    <path
       d="m246.5 1048.9 1.5-1.1416-1.5-1.1415"
       fill-rule="evenodd"
       id="path347" />
  </g>
  <g
     stroke="#000"
     id="g349">
    <g
       fill-rule="evenodd"
       transform="matrix(.70711 .70711 -.70711 .70711 745.33 -747.34)"
       stroke-width=".5"
       id="g351">
      <path
         d="m15.793 1048.9v-4.8284h1.4142v4.8284l-.70711 1.5355-.70711-1.5355z"
         fill="#ffc022"
         id="path353" />
      <path
         stroke-linejoin="round"
         d="m15.793 1048.9h1.4142l-.70711 1.5355-.70711-1.5355z"
         fill="#fff"
         id="path355" />
    </g>
    <g
       transform="translate(0,-1042.4)"
       stroke-width=".5"
       fill="none"
       id="g357">
      <path
         d="m91.75 1043.4v8"
         id="path359" />
      <path
         d="m171 1051.6h8"
         id="path361" />
      <path
         d="m173 1047.4v4"
         id="path363" />
      <path
         d="m177 1050.4v1"
         id="path365" />
    </g>
    <g
       transform="matrix(.86138 0 0 .86138 31.625 -872.5)"
       stroke-linecap="round"
       stroke-width=".58046"
       fill="#fff"
       id="g367">
      <circle
         cx="165.03"
         cy="1016.7"
         r="2.5112"
         id="circle369" />
      <path
         d="m164.12 1018.9a1.6784 1.6784 0 0 1 -2.0221 -.033 1.6784 1.6784 0 0 1 -.52231 -1.9538 1.6784 1.6784 0 0 1 1.7358 -1.0378"
         id="path371" />
      <path
         d="m166.75 1016.6a1.4781 1.4781 0 0 1 1.6456 -.2273 1.4781 1.4781 0 0 1 .81764 1.4461 1.4781 1.4781 0 0 1 -1.0431 1.2929 1.4781 1.4781 0 0 1 -1.5863 -.4933"
         id="path373" />
    </g>
    <g
       stroke-width=".5"
       transform="translate(0,-1042.4)"
       id="g375">
      <path
         d="m241 1047.7h6"
         fill="none"
         id="path377" />
      <path
         d="m231 1047.7h8.1"
         fill="none"
         id="path379" />
      <rect
         ry="0"
         height="4.5"
         width="4.5"
         y="1047.1"
         x="264.77"
         fill="#a6c8ad"
         id="rect381" />
      <path
         d="m266.5 1050.5 1.2-1.1416-1.2-1.1415"
         fill="none"
         id="path383" />
      <path
         d="m262.99 1047.9-.0228 1.432h4.6355"
         fill="none"
         id="path385" />
      <rect
         ry="0"
         height="4.5"
         width="4.5"
         y="1043.5"
         x="260.77"
         fill="#99fcae"
         id="rect387" />
      <path
         d="m262.35 1046.8 1.2499-1.1416-1.2499-1.1415"
         fill="none"
         id="path389" />
      <path
         d="m260 1045.6h3.3"
         fill="none"
         id="path391" />
      <rect
         ry="0"
         height="4.5"
         width="4.5"
         y="1045.5"
         x="244.77"
         fill="#99fcae"
         id="rect393" />
      <path
         d="m246.5 1048.9 1.2-1.1416-1.2-1.1415"
         fill="none"
         id="path395" />
      <path
         d="m241 1047.7h6.6"
         fill="none"
         id="path397" />
      <rect
         ry="0"
         height="4.5"
         width="4.5"
         y="1045.5"
         x="254.77"
         fill="#99fcae"
         id="rect399" />
    </g>
  </g>
  <path
     d="m256.5 6.5 1.5-1.1416-1.5-1.1415"
     fill-rule="evenodd"
     id="path401" />
  <g
     stroke="#000"
     id="g403">
    <g
       stroke-width=".5"
       id="g405">
      <g
         transform="translate(0,-1042.4)"
         id="g407">
        <path
           d="m251 1047.7h6"
           fill="none"
           id="path409" />
        <rect
           ry="0"
           height="4.5"
           width="4.5"
           y="1045.5"
           x="254.77"
           fill="#99fcae"
           id="rect411" />
        <path
           d="m256.5 1048.9 1.2-1.1416-1.2-1.1415"
           fill="none"
           id="path413" />
        <path
           d="m251 1047.7h6.6"
           fill="none"
           id="path415" />
      </g>
      <path
         d="m393 3.4h4"
         fill="none"
         id="path417" />
      <path
         d="m395 3.4v3.5"
         fill="none"
         id="path419" />
      <rect
         transform="rotate(90)"
         ry="0"
         height="6"
         width="8"
         stroke-linecap="round"
         y="-418"
         x="1"
         fill="#fff"
         id="rect421" />
      <g
         transform="translate(0,-1042.4)"
         fill="none"
         id="g423">
        <path
           d="m413 1045.4h4"
           id="path425" />
        <path
           d="m413 1046.4h4"
           id="path427" />
        <path
           d="m413 1047.4h4"
           id="path429" />
      </g>
    </g>
    <g
       transform="translate(0,-1042.4)"
       id="g431">
      <path
         d="m133 1042.9v1.7192"
         stroke-width=".48238"
         fill="none"
         id="path433" />
      <path
         d="m137 1042.9v1.7192"
         stroke-width=".48238"
         fill="none"
         id="path435" />
      <rect
         stroke-linejoin="round"
         transform="rotate(-90)"
         height="5.0655"
         width="4.937"
         stroke-linecap="round"
         y="441.16"
         x="-1048.4"
         stroke-width=".5"
         fill="#ffe680"
         id="rect437" />
      <rect
         stroke-linejoin="round"
         transform="rotate(-90)"
         height="5.0655"
         width="4.937"
         stroke-linecap="round"
         y="442.58"
         x="-1049.9"
         stroke-width=".5"
         fill="#fea"
         id="rect439" />
    </g>
    <g
       stroke-linejoin="round"
       stroke-linecap="round"
       id="g441">
      <rect
         transform="rotate(-90)"
         height="5.0655"
         width="4.937"
         y="443.79"
         x="-8.8"
         stroke-width=".5"
         fill="#fff"
         id="rect443" />
      <path
         d="m467.73 6.0355.39456 1.946-1.9567-.33756-1.097 1.655-1.1449-1.6222-1.946.39456.33756-1.9567-1.6551-1.0971 1.6223-1.1449-.39448-1.9459 1.9567.33749 1.097-1.655 1.145 1.6223 1.946-.39456-.33755 1.9567 1.655 1.0971z"
         stroke-width="0.5"
         fill="#fc0"
         id="path445" />
      <circle
         stroke-width=".5"
         transform="matrix(.97757 .21059 -.21059 .97757 0 0)"
         cy="-96.037"
         cx="475.22"
         r="3"
         id="circle447" />
    </g>
  </g>
  <g
     fill="none"
     transform="translate(0,-1042.4)"
     id="g449">
    <path
       d="m481.88 1045.8.441.6832 1.3664-.8819-.441-.6832-1.3664.8819z"
       stroke-width=".57499px"
       stroke="#000"
       id="path451" />
    <g
       stroke-width=".5"
       id="g453">
      <path
         d="m482.67 1045.6c-.22227-.2776-.3506-.629-.35949-.9845-.009-.3555.10171-.713.30983-1.0013s.51253-.5059.85273-.6094.7142-.092 1.0476.031c.0876.033.17245.072.25327.1193l1.9615 1.0913"
         stroke="#000"
         id="path455" />
      <path
         stroke-linejoin="round"
         d="m484.24 1050.6a2 2 0 0 1 -1.5209 -1.4577 2 2 0 0 1 .62815 -2.0109"
         stroke="#fff"
         id="path457" />
      <g
         stroke="#000"
         id="g459">
        <path
           d="m487.52 1045.2.11971 1.4092"
           id="path461" />
        <path
           d="m488.09 1044.9 1.1657.8006"
           id="path463" />
        <path
           d="m488.29 1044.4 1.3965-.2232"
           id="path465" />
        <path
           d="m485.82 1045.9 1-1"
           id="path467" />
        <path
           d="m487.9 1043.9.56286-1.0604"
           id="path469" />
        <path
           d="m487.2 1043.8-.52501-1.1752"
           id="path471" />
      </g>
    </g>
  </g>
  <g
     stroke="#000"
     stroke-width=".5"
     id="g473">
    <g
       stroke-linejoin="round"
       transform="translate(0,-1042.4)"
       stroke-linecap="round"
       id="g475">
      <path
         d="m391.5 1050.4 1 1h-2.25l.75779-3.1639-.75779-2.8361h1.25v5z"
         fill-rule="evenodd"
         fill="#fff"
         id="path477" />
      <path
         d="m398.59 1050.4-1 1h2.1598l-.80298-3.0285.80298-2.9715h-1.1598v5z"
         fill-rule="evenodd"
         fill="#fff"
         id="path479" />
      <path
         d="m392.5 1051.4v-1h-1l1 1z"
         fill="none"
         id="path481" />
      <path
         d="m397.5 1051.4v-1h1l-1 1z"
         fill="none"
         id="path483" />
      <circle
         cy="1047.4"
         cx="505"
         r="3"
         fill="#fff"
         id="circle485" />
      <rect
         height="2"
         width="2"
         y="1050.1"
         x="504"
         fill="#fc0"
         id="rect487" />
    </g>
    <g
       transform="translate(0,-1042.4)"
       fill="none"
       id="g489">
      <path
         d="m500 1047.4h1"
         id="path491" />
      <path
         d="m509 1047.4h1"
         id="path493" />
      <path
         d="m500.67 1049.9.86603-.5"
         id="path495" />
      <path
         d="m508.46 1045.4.86603-.5"
         id="path497" />
      <path
         d="m502.5 1051.7.5-.866"
         id="path499" />
      <path
         d="m507 1043.9.5-.866"
         id="path501" />
      <path
         d="m505 1043.4.000010-1"
         id="path503" />
      <path
         d="m507.5 1051.7-.5-.8"
         id="path505" />
      <path
         d="m503 1043.9-.49999-.866"
         id="path507" />
      <path
         d="m509.33 1049.9-.866-.5"
         id="path509" />
      <path
         d="m501.54 1045.4-.866-.5"
         id="path511" />
      <path
         d="m517.84 1044.6.70711-.7071"
         id="path513" />
      <path
         d="m516.05 1043.5.25882-.966"
         id="path515" />
      <path
         d="m513.98 1043.5-.2588-.966"
         id="path517" />
      <path
         d="m512.18 1044.6-.7071-.7071"
         id="path519" />
    </g>
    <circle
       stroke-linejoin="round"
       stroke-linecap="round"
       transform="rotate(-45)"
       cy="367.61"
       cx="360.64"
       r="3"
       fill="#fff"
       id="circle521" />
    <path
       d="m514.98 5-.81-2.795"
       fill="none"
       id="path523" />
    <g
       stroke-linejoin="round"
       transform="translate(0,-1042.4)"
       stroke-linecap="round"
       id="g525">
      <path
         d="m542.5 1044.4h4.9948c.55685 0 1.0052.446 1.0052 1v3c0 .554-.2621.9738-1.0052 1h-1.4671l.0115 2.4355-2.0327-2.4355h-1.5065c-.55686 0-1.0052-.446-1.0052-1v-3c0-.554.4483-1 1.0052-1z"
         fill="#fff"
         id="path527" />
      <ellipse
         rx="3.2936"
         ry="3.2946"
         cy="1047.4"
         cx="535"
         fill="#fff"
         id="ellipse529" />
      <ellipse
         cy="1046.4"
         cx="533.76"
         rx=".41170"
         ry=".41183"
         id="ellipse531" />
      <ellipse
         cy="1046.4"
         cx="536.24"
         rx=".41170"
         ry=".41183"
         id="ellipse533" />
    </g>
    <path
       d="m533.35 6.1c.8234.8237 2.4702.8237 3.2936 0"
       fill="none"
       id="path535" />
    <path
       stroke-linejoin="round"
       d="m554.9 1c-.94289.024-1.847.3801-2.5527 1.0059-1.491 1.3219-1.7816 3.5416-.68164 5.2031h6.6659c1.0652-1.6838.77959-3.967-.7382-5.2578-.76-.6377-1.72-.9764-2.7-.9512z"
       stroke-linecap="round"
       fill="#fff"
       id="path537" />
    <circle
       id="circle4919"
       r="3"
       cx="487.91934"
       cy="494.88934"
       transform="matrix(0.70710678,-0.70710678,0.70710678,0.70710678,0,0)"
       style="fill:none;stroke-linecap:round;stroke-linejoin:round;fill-opacity:0.41919193" />
    <path
       style="fill:none;fill-rule:evenodd;stroke:#000000;stroke-width:1px;stroke-linecap:butt;stroke-linejoin:miter;stroke-opacity:1"
       d="m 697,7 2,2"
       id="path4921"
       inkscape:connector-curvature="0" />
    <path
       style="fill:none;fill-opacity:0.41919197;stroke:#9e9e9e;stroke-width:0.5;stroke-linecap:round;stroke-linejoin:round;stroke-miterlimit:4;stroke-dasharray:none;stroke-opacity:0.52020204"
       d="m 696.80897,4.7020951 a 2.117485,2.117485 0 0 1 -1.94238,2.1007294"
       id="circle4923"
       inkscape:connector-curvature="0" />
    <path
       inkscape:connector-curvature="0"
       id="path4926"
       d="m 693.19157,5.1280673 a 2.117485,2.117485 0 0 1 1.94238,-2.1007294"
       style="fill:none;fill-opacity:0.41919197;stroke:#ffffff;stroke-width:0.5;stroke-linecap:round;stroke-linejoin:round;stroke-miterlimit:4;stroke-dasharray:none;stroke-opacity:1" />
  </g>
  <path
     d="m553 3 2 3h1v-1l-3-2z"
     fill-rule="evenodd"
     id="path539" />
  <path
     d="m112 9 3-8 3 8"
     stroke="#000"
     stroke-linecap="round"
     stroke-width=".5"
     fill="none"
     id="path541" />
  <path
     d="m112 8h6"
     stroke="#000"
     stroke-width=".5"
     fill="none"
     id="path543" />
  <g
     transform="translate(0,-1042.4)"
     id="g545">
    <rect
       stroke-linejoin="round"
       ry="1"
       height="5.5"
       width="8"
       stroke="#000"
       stroke-linecap="round"
       y="1043.9"
       x="111"
       stroke-width=".5"
       fill="#fff"
       id="rect547" />
    <rect
       height="3.5"
       width="6"
       y="1044.9"
       x="112"
       fill="#fff"
       id="rect549" />
    <path
       d="m376.06.81641c-.26 0-.51.09905-.71.29489l-4.24 4.2422c-.39.3918-.39 1.0223 0 1.4141l2.12 2.1211c.39.3917 1.02.3917 1.42 0l4.24-4.2422c.39-.3918.39-1.0223 0-1.4141l-2.12-2.1211c-.2-.19584-.45-.29489-.71-.29489zm.6 2.0352a.5 .5 0 0 1 .35 .1464 .5 .5 0 0 1 0 .7071 .5 .5 0 0 1 -.71 0 .5 .5 0 0 1 0 -.7071 .5 .5 0 0 1 .36 -.1464z"
       transform="translate(0,1042.4)"
       stroke="#000"
       stroke-linecap="round"
       stroke-width=".5"
       fill="#ffdb9d"
       id="path551" />
  </g>
  <g
     stroke="#000"
     id="g553">
    <g
       fill="none"
       transform="translate(0,-1042.4)"
       id="g555">
      <path
         d="m36.402 1109.8a1.5 1 0 0 1 1.5916 .834 1.5 1 0 0 1 -1.1039 1.1313 1.5 1 0 0 1 -1.7887 -.6319"
         transform="rotate(-18.007)"
         stroke-linecap="round"
         stroke-width=".5"
         id="path557" />
      <g
         stroke-width=".79140px"
         id="g559">
        <path
           d="m373.73 1050.1.44287-.4429"
           id="path561" />
        <path
           d="m374.62 1049.3.44287-.4428"
           id="path563" />
        <path
           d="m375.5 1048.4.44287-.4429"
           id="path565" />
      </g>
    </g>
    <path
       d="m567.5 4.5v2.0807c.26.7418 1.42 1.4193 1 1.4193h-3.5-3.5c-.54257 0 .68303-.7235 1-1.5142v-1.9858c0-1.5.84-2.5 2.5-2.5 1.6568 0 2.5 1 2.5 2.5z"
       stroke-linecap="round"
       stroke-width=".5"
       fill="#fc0"
       id="path567" />
    <path
       d="m565.5 8.7a.5 .5 0 0 1 -.25 .433 .5 .5 0 0 1 -.5 0 .5 .5 0 0 1 -.25 -.433h.5z"
       stroke-linecap="round"
       stroke-width=".5"
       fill="#fc0"
       id="path569" />
  </g>
  <g
     stroke-linecap="round"
     fill="none"
     transform="translate(0,-1042.4)"
     id="g571">
    <path
       d="m568.4-1045.8a3.2 3.2 0 0 1 -1.359 1.8833"
       transform="scale(1,-1)"
       stroke="#000"
       stroke-width="0.4"
       id="path573" />
    <path
       d="m-561.6-1045.8a3.2 3.2 0 0 1 -1.359 1.8833"
       transform="scale(-1)"
       stroke="#000"
       stroke-width="0.4"
       id="path575" />
    <path
       d="m563.77 1048.6c.0008-.062-.008-2.1145.00022-2.1751.0805-.5674.20635-1.0433.77551-1.2015"
       stroke-width=".36693"
       stroke="#fff"
       id="path577" />
    <g
       stroke-width=".5"
       stroke="#000"
       id="g579">
      <path
         d="m451 1043.9 1 .5 1 5.75h5"
         id="path581" />
      <circle
         cx="453"
         cy="1050.9"
         r=".75"
         id="circle583" />
      <circle
         cx="457.98"
         cy="1050.9"
         r=".75"
         id="circle585" />
    </g>
  </g>
  <g
     transform="translate(0,-1042.4)"
     id="g587">
    <path
       stroke-linejoin="round"
       style="color-rendering:auto;text-decoration-color:#000000;color:#000000;isolation:auto;mix-blend-mode:normal;shape-rendering:auto;solid-color:#000000;block-progression:tb;text-decoration-line:none;image-rendering:auto;white-space:normal;text-indent:0;text-transform:none;text-decoration-style:solid"
       d="m571 1050c.0358.4673.42729.8273.89617.8258h6.2033c.69041.0008 1.1224-.7462.77716-1.3442l-3.1018-5.377c-.34414-.5997-1.2098-.5997-1.5543 0l-3.1015 5.377c-.0896.1577-.13264.337-.11829.5184z"
       stroke="#000"
       stroke-linecap="round"
       stroke-width=".5"
       fill="#fc0"
       id="path589" />
    <g
       transform="matrix(1.015 0 0 .73937 210.57 44.961)"
       id="g591">
      <path
         d="m358.65 1358.2h.77212v.9661h-.77212zm.36559-4.9183c.1985 0 .55415.2748.53963.5466l-.1331 2.4914-.0761 1.3578h-.61617l-.0799-1.3578-.15091-2.4914c-.0159-.2621.32499-.5466.51655-.5466z"
         id="path593" />
    </g>
    <g
       transform="matrix(1.015 0 0 .73937 100.57 44.711)"
       id="g595">
      <path
         d="m358.65 1358.2h.77212v.9661h-.77212zm.36559-4.9183c.1985 0 .55415.2748.53963.5466l-.1331 2.4914-.0761 1.3578h-.61617l-.0799-1.3578-.15091-2.4914c-.0159-.2621.32499-.5466.51655-.5466z"
         id="path597" />
    </g>
    <path
       stroke-linejoin="round"
       d="m588 1044.4v4c0 1-1 2-2.9942 3.1112-2.01-1.1-3.01-2.1-3.01-3.1v-4c2-1 4-1 6 0z"
       stroke="#000"
       stroke-linecap="round"
       stroke-width=".5"
       fill="#9c3"
       id="path599" />
  </g>
  <g
     stroke="#000"
     id="g601">
    <path
       d="m583.74 4.9 1 1 2.0277-2"
       fill="none"
       id="path603" />
    <g
       stroke-width=".5"
       transform="matrix(-.70711 -.70711 .70711 -.70711 277.49 1165.1)"
       id="g605">
      <rect
         ry="0"
         height="1"
         width="9"
         y="1044.4"
         x="591"
         fill="#fff"
         id="rect607" />
      <rect
         y="1044.4"
         x="591"
         height="1"
         width="7"
         id="rect609" />
    </g>
    <g
       transform="translate(0,-1042.4)"
       id="g611">
      <path
         d="m595.06 1043.7-.39846.1967-.0639.4397-.31016-.3182-.43794.075.20677-.3933-.20677-.3933.43794.075.31016-.3182.0639.4397z"
         stroke-width=".5"
         fill="#fc0"
         id="path613" />
      <path
         d="m592.5 1048-.39846.1966-.0639.4398-.31016-.3182-.43794.075.20677-.3933-.20677-.3933.43794.075.31016-.3182.0639.4397z"
         stroke-width=".33456"
         id="path615" />
      <path
         d="m598.03 1045.3-.66318.3273-.10635.7319-.51621-.5296-.7289.125.34414-.6546-.34414-.6546.7289.125.51621-.5296.10635.7319z"
         transform="matrix(.60208 .79844 -.79844 .60208 1072.2 -61.134)"
         stroke-width=".5"
         fill="#fc0"
         id="path617" />
    </g>
  </g>
  <g
     transform="matrix(.41667 0 0 .41667 82.499 -430.19)"
     id="g619">
    <g
       transform="translate(594,1032.4)"
       id="g621">
      <path
         d="m0 0h24v24h-24z"
         fill="none"
         id="path623" />
      <path
         d="m1 9 2 2c4.97-4.97 13.03-4.97 18 0l2-2c-6.07-6.07-15.92-6.07-22 0zm8 8 3 3 3-3c-1.65-1.66-4.34-1.66-6 0zm-4-4 2 2c2.76-2.76 7.24-2.76 10 0l2-2c-3.86-3.86-10.13-3.86-14 0z"
         id="path625" />
    </g>
  </g>
  <path
     d="m340 0h10v10h-10z"
     fill="none"
     id="path627" />
  <g
     transform="translate(0,-1042.4)"
     id="g629">
    <path
       d="m343.75 1049.4 1.25 1.25 1.25-1.25c-.6875-.6916-1.8083-.6916-2.5 0z"
       id="path631" />
    <path
       d="m340.42 1046.1.83333.8333c2.0708-2.0708 5.4292-2.0708 7.5 0l.83333-.8333c-2.5292-2.5292-6.6333-2.5292-9.1667 0z"
       fill-opacity=".23529"
       id="path633" />
    <path
       d="m342.08 1047.8.83334.8333c1.15-1.15 3.0167-1.15 4.1667 0l.83334-.8333c-1.6083-1.6084-4.2208-1.6084-5.8333 0z"
       id="path635" />
  </g>
  <g
     stroke="#000"
     fill="none"
     id="g637">
    <path
       d="m642 5h6"
       stroke-width=".5"
       id="path639" />
    <path
       d="m645 2v6"
       stroke-width=".5"
       id="path641" />
    <g
       stroke-width=".50001"
       id="g643">
      <path
         d="m617.41 5 1.3268-2.2345-2.2346-1.3267"
         id="path645" />
      <path
         d="m618.42 2.9c-2.4247.055-3.3502 1.9898-3.4242 3.5554v2.0001"
         id="path647" />
      <g
         transform="matrix(-1 0 0 1 1230 -1042.4)"
         id="g649">
        <path
           d="m617.41 1047.4 1.3268-2.2345-2.2346-1.3267"
           id="path651" />
        <path
           d="m618.42 1045.3c-2.4247.055-3.3502 1.9898-3.4242 3.5554v2.0001"
           id="path653" />
      </g>
    </g>
    <g
       transform="translate(0,-1042.4)"
       id="g655">
      <path
         d="m627.97 1047.1c.0965 1.4331-.85081 2.7691-2.2944 3.1153h.00010c-1.2798.3069-2.5648-.2565-3.2329-1.3088m-.45013-1.2921c-.15867-1.4773.80053-2.878 2.2839-3.2337 1.4336-.3438 2.8738.4045 3.446 1.7087"
         stroke-width=".5"
         id="path657" />
      <path
         d="m624.83 1048.7-2.5988-.013-.0128 2.5988"
         stroke-width=".50001"
         id="path659" />
      <path
         d="m625.31 1046.1 2.5988.013.0128-2.5988"
         stroke-width=".50001"
         id="path661" />
    </g>
  </g>
  <g
     transform="matrix(.99995 0 0 -1 -.21977 1051.3)"
     id="g663">
    <circle
       stroke-width=".5"
       stroke="#000"
       cy="1044.4"
       cx="632"
       r="1"
       fill="none"
       id="circle665" />
    <circle
       stroke-width=".5"
       stroke="#000"
       cy="1048.4"
       cx="632"
       r="1"
       fill="none"
       id="circle667" />
    <path
       d="m632.39 1045.2 4.5536 3.5538h1l-5.1375-4.1133"
       fill-rule="evenodd"
       id="path669" />
    <path
       d="m632.46 1047.7 1.5238-1.278h1l-2.1077 1.8375"
       fill-rule="evenodd"
       id="path671" />
  </g>
  <path
     d="m639 5h-3.73"
     stroke="#000"
     stroke-dasharray="1, 0.5"
     stroke-width=".5"
     fill="none"
     id="path673" />
  <g
     transform="translate(10,-1042.4)"
     id="g675">
    <path
       d="m343.75 1049.4 1.25 1.25 1.25-1.25c-.6875-.6916-1.8083-.6916-2.5 0z"
       id="path677" />
    <path
       d="m340.42 1046.1.83333.8333c2.0708-2.0708 5.4292-2.0708 7.5 0l.83333-.8333c-2.5292-2.5292-6.6333-2.5292-9.1667 0z"
       fill-opacity=".23529"
       id="path679" />
    <path
       d="m342.08 1047.8.83334.8333c1.15-1.15 3.0167-1.15 4.1667 0l.83334-.8333c-1.6083-1.6084-4.2208-1.6084-5.8333 0z"
       fill-opacity=".23529"
       id="path681" />
  </g>
  <rect
     height="4"
     width="2"
     stroke="#000"
     y="3.7491"
     x="652"
     stroke-width=".5"
     fill="#d3d7cf"
     id="rect683" />
  <circle
     cx="652.98"
     cy="6.8491"
     r=".25"
     id="circle685" />
  <path
     d="m668.51 5.1 1.09-1.0854-1.09-1.0854"
     stroke="#000"
     stroke-width=".5"
     fill="none"
     id="path687" />
  <rect
     height="5"
     width="6"
     stroke="#000"
     y="4"
     x="672"
     stroke-width=".5"
     fill="#fc0"
     id="rect689" />
  <circle
     cx="675"
     cy="6"
     r="0"
     id="circle691" />
  <path
     d="m675 6v1.5"
     stroke="#000"
     stroke-width=".5"
     fill="none"
     id="path693" />
  <g
     transform="translate(0,-1042.4)"
     id="g695">
    <circle
       stroke-width=".5"
       stroke="#000"
       cy="1047.4"
       cx="685"
       r="4"
       fill="#d5eef8"
       id="circle697" />
    <rect
       y="1045.1"
       x="684.5"
       height="1"
       width="1"
       id="rect699" />
    <rect
       y="1046.7"
       x="684.5"
       height="2.9295"
       width="1"
       id="rect701" />
  </g>
  <g
     transform="translate(0 -1041.3)"
     id="g703">
    <path
       stroke-linejoin="round"
       style="color-rendering:auto;text-decoration-color:#000000;color:#000000;isolation:auto;mix-blend-mode:normal;shape-rendering:auto;solid-color:#000000;block-progression:tb;text-decoration-line:none;image-rendering:auto;white-space:normal;text-indent:0;text-transform:none;text-decoration-style:solid"
       d="m661.95 1049.4c.0273.3568.32626.6317.68428.6306h4.7366c.52717.0006.85699-.5698.59341-1.0264l-2.3684-4.1057c-.26277-.4579-.92378-.4579-1.1868 0l-2.3682 4.1057c-.0684.1204-.10128.2573-.0903.3958z"
       stroke="#000"
       stroke-linecap="round"
       stroke-width=".5"
       fill="#fc0"
       id="path705" />
    <g
       transform="matrix(.77503 0 0 .56455 386.74 281.95)"
       id="g707">
      <path
         d="m358.65 1358.2h.77212v.9661h-.77212z"
         id="path709" />
      <path
         d="m359.01 1353.2c.25271 0 .70549.2624.68701.522l-.16945 2.379-.0969 1.2966h-.78444l-.10173-1.2966-.19212-2.379c-.0202-.2503.41375-.522.65762-.522z"
         id="path711" />
    </g>
  </g>
  <g
     transform="matrix(.014648 0 0 .014648 401.25 1.2)"
     stroke="#000"
     stroke-width="34.133"
     fill="#d5eef8"
     id="g713">
    <path
       d="m172.25 85.124c-25.46-10.232-50.92-20.462-76.385-30.694l-42.111 42.111c10.381 25.238 20.763 50.476 31.144 75.715-4.4645 7.1505-5.4637 16.36-10.737 22.852-24.635 10.533-49.27 21.066-73.905 31.6v59.564l75.639 31.512c1.9919 8.1876 7.4783 15.59 8.4222 23.839-9.9617 24.838-19.923 49.676-29.885 74.513l42.111 42.111c25.296-10.416 50.591-20.834 75.887-31.249 7.0276 4.3273 16.175 5.1792 22.486 10.343l31.794 74.404h59.568c10.601-25.48 21.205-50.958 31.804-76.438 7.7357-1.9854 14.772-7.2428 22.634-8.0178l75.407 30.214 42.109-42.109c-10.544-25.563-21.091-51.124-31.633-76.688 4.0867-6.73 4.9002-15.39 9.9663-21.36l75.183-32.059v-59.56c-25.615-10.672-51.229-21.347-76.844-32.018-1.8242-7.6527-6.982-14.584-7.7205-22.313l30.339-75.534c-14.05-14.01-28.09-28.047-42.14-42.084-25.51 10.508-51.03 21.015-76.54 31.523-6.81-4.247-15.61-5.27-21.7-10.357l-31.86-74.664h-59.564c-10.36 24.792-20.71 49.584-29.034 64.558-8.3241 14.974-17.384 15.994-24.433 20.286zm85.12 69.383c44.132.13888 85.652 32.702 96.319 75.539 10.571 38.882-4.5783 83.243-37.15 107.13-32.545 24.876-80.384 27.176-114.91 4.9395-34.124-21.104-53.513-63.516-46.28-103.12 6.6875-40.984 40.706-76.032 81.854-82.831 6.646-1.2351 13.414-1.7244 20.169-1.6587z"
       stroke="#000"
       stroke-width="34.133"
       fill="#b0c4de"
       id="path715" />
  </g>
  <path
     stroke-linejoin="round"
     style="color-rendering:auto;text-decoration-color:#000000;color:#000000;isolation:auto;mix-blend-mode:normal;shape-rendering:auto;solid-color:#000000;block-progression:tb;text-decoration-line:none;image-rendering:auto;white-space:normal;text-indent:0;text-transform:none;text-decoration-style:solid"
     d="m602.67 9.2h4.6524c.51781.0006.84178-.5596.58287-1.0081l-2.3264-4.0327c-.25811-.4498-.90737-.4498-1.1657 0l-2.3261 4.0327c-.0672.1182-.0995.2527-.081.496.0185.2432.31218.5121.66385.5121z"
     stroke="#000"
     stroke-linecap="round"
     stroke-width=".5"
     fill="#fc0"
     id="path717" />
  <g
     transform="matrix(.65579 0 0 .47769 369.55 -641.04)"
     id="g719">
    <path
       d="m358.65 1358.2h.77212v.9661h-.77212zm.36559-4.9183c.1985 0 .55415.2748.53963.5466l-.1331 2.4914-.0761 1.3578h-.61617l-.0799-1.3578-.15091-2.4914c-.0159-.2621.32499-.5466.51655-.5466z"
       id="path721" />
  </g>
  <rect
     fill-opacity="0"
     height="13.119"
     width="12.47"
     y="-22.8"
     x="581.64"
     id="rect723" />
  <g
     stroke="#000"
     id="g725">
    <g
       fill="none"
       transform="translate(0,-1042.4)"
       id="g727">
      <path
         stroke-linejoin="round"
         d="m493.44 1046.4v-.9774c0-.554.446-1 1-1h4.56v6h-4.56c-.554 0-1-.446-1-1v-.9786"
         stroke-width=".5"
         id="path729" />
      <path
         d="m496.58 1047.4h-5.4971"
         stroke-width=".5"
         id="path731" />
      <path
         d="m494.75 1049.3 1.8377-1.8376-1.8377-1.8375"
         stroke-width=".45939"
         id="path733" />
    </g>
    <path
       stroke-linejoin="round"
       d="m499.16 2.9c0-.5734-.14498-.9231-.32506-.7842l-1.1294.871c-.18008.1389-.32506.7124-.32506 1.2858v4.14c0 .5734.14498.9231.32506.7842l1.1294-.871c.19-.1389.33-.7124.33-1.2858v-2.0706z"
       stroke-width=".5"
       fill="#f4a460"
       id="path735" />
    <g
       transform="translate(0,-1042.4)"
       id="g737">
      <circle
         stroke-linejoin="round"
         stroke-width=".56253"
         stroke-linecap="round"
         cy="1045.4"
         cx="525"
         r="1.9687"
         fill="#fff"
         id="circle739" />
      <path
         d="m522.27 1048.6c.59586-.2687 1.2472-.8297 1.7848-.5542.64599.3309 1.2958.2333 1.9577.01.56309-.1923 1.182.2941 1.7926.5849.36277.2567.69148.4648.69882.9254v1.8156h-7v-1.6692c.006-.5651.34839-.9189.76611-1.1097z"
         stroke-width=".5"
         fill="#bfbfbf"
         id="path741" />
    </g>
  </g>
  <g
     transform="translate(-130,-1042.4)"
     id="g743">
    <path
       d="m602.6 1044.4h-1.475v7.0051h5.125 1.5 1.5l.00003-5.7601-3 1.4824v-1.4824l-2.95 1.5101v-2.7551h-.7"
       stroke="#000"
       stroke-width=".5"
       fill="#fce94f"
       id="path745" />
    <path
       d="m603.63 1049.1h-1.1297v1.0296h1.1297z"
       id="path747" />
    <path
       d="m605.63 1049.1h-1.1297v1.0296h1.1297z"
       id="path749" />
    <path
       d="m607.63 1049.1h-1.1297v1.0296h1.1297z"
       id="path751" />
    <path
       d="m601.91 1043.8c.004-.6396 1.4627-1.3293 2.4962-.6911.37502-.6301 1.6618-.3976 1.6441.078.82188-.5283 1.8634-.048 1.3867.7396-.20372.3363-1.229.7323-2.3989.1704-.80719.5452-1.7316-1.3288-2.4388-.2442-.17939-.114-.55924-.081-.55924-.081z"
       fill-opacity=".44444"
       fill-rule="evenodd"
       id="path753" />
  </g>
  <g
     style="stroke:#000000;stroke-linecap:round"
     id="g773">
    <circle
       style="stroke-width:0.5;stroke-linejoin:round"
       id="circle775"
       r="0.29269001"
       cy="6.1013999"
       cx="675.01001" />
    <rect
       style="fill:#97a18e;stroke-width:0.55642003"
       id="rect777"
       x="230.88"
       y="241.67999"
       width="4.1075001"
       height="4.1075001"
       transform="matrix(0.8916,-0.45282,0.8916,0.45282,0,0)" />
    <rect
       style="fill:#d3d7cf;stroke-width:0.55642003"
       id="rect779"
       x="232.53999"
       y="240.02"
       width="4.1075001"
       height="4.1075001"
       transform="matrix(0.8916,-0.45282,0.8916,0.45282,0,0)" />
  </g>
  <rect
     style="fill:#ffffff;stroke:#000000;stroke-width:0.5;stroke-linecap:round"
     id="rect781"
     x="2"
     y="-368"
     width="7"
     height="6"
     transform="matrix(0,1,-1,0,0,0)"
     ry="0" />
  <path
     style="fill:#fce94f;fill-rule:evenodd;stroke:#000000;stroke-width:0.5"
     inkscape:connector-curvature="0"
     id="path783"
     d="m 363.99,1.5 0.32767,0 c 0,0 0.0647,-0.53079 0.67233,-0.5 0.59,-0.02807 0.66,0.5 0.66,0.5 l 0.3449,0 c 0.60254,0 0.5,0.80875 0.5,1.25 l -3,0 c 0,-0.51808 -0.0143,-1.25 0.5,-1.25 z" />
  <rect
     style="fill:#ffffff;stroke:#000000;stroke-width:0.5;stroke-linecap:round"
     ry="0"
     transform="matrix(0,1,-1,0,0,0)"
     height="6"
     width="7"
     y="-738"
     x="2"
     id="rect5093" />
  <path
     style="fill:#fce94f;fill-rule:evenodd;stroke:#000000;stroke-width:0.5"
     inkscape:connector-curvature="0"
     d="m 733.99,1.5 0.32767,0 c 0,0 0.0647,-0.53079 0.67233,-0.5 0.59,-0.02807 0.66,0.5 0.66,0.5 l 0.3449,0 c 0.60254,0 0.5,0.80875 0.5,1.25 l -3,0 c 0,-0.51808 -0.0143,-1.25 0.5,-1.25 z"
     id="path5095" />
  <path
     fill="none"
     d="m363.48 5.4793 1 1 2.0277-2"
     stroke="#000"
     id="path785" />
  <path
     style="fill:none;fill-rule:evenodd;stroke:#000000;stroke-width:0.5;stroke-linecap:round;stroke-linejoin:round;stroke-miterlimit:4;stroke-dasharray:none;stroke-opacity:1"
     d="m 707.00192,1.5319438 -1e-5,5.3852943 c 1e-5,0.381447 1e-5,0.381447 -1.02631,1.40776 -1.02631,1.0263048 -1.02631,1.0263048 -2.05263,7.6e-6 -1.0263,-1.0263096 -1.02629,-1.0263096 -1.02629,-1.5158997 l -10e-6,-5.2771553 c 0,-0.4219306 0.45712,-1.02631519 1.48342,-1.02632608 1.02631,0 1.59552,0.53404218 1.59553,1.02632298 l -1e-5,4.1052529 c -10e-6,0.6288147 -0.41629,1.0262937 -1.02631,1.0262939 -0.61002,10e-8 -1.02631,-0.4739176 -1.02631,-1.0263097 l -10e-6,-3.7831401"
     id="path5704"
     inkscape:connector-curvature="0"
     sodipodi:nodetypes="ccccsssssssc" />
  <rect
     id="rect5708"
     x="711.00012"
     y="2.75"
     width="8"
     height="6"
     ry="1"
     style="fill:#ffffff;stroke:#000000;stroke-width:0.5;stroke-linecap:round;stroke-linejoin:round;stroke-miterlimit:4;stroke-dasharray:none;stroke-opacity:1;fill-opacity:1" />
  <rect
     style="fill:#ff531c;fill-opacity:1;stroke:none;stroke-width:0.5;stroke-linecap:butt;stroke-linejoin:miter;stroke-miterlimit:4;stroke-dasharray:none;stroke-dashoffset:0;stroke-opacity:1"
     id="rect5729"
     width="3"
     height="1"
     x="713.5"
     y="5.25"
     ry="0" />
  <rect
     ry="0"
     y="-715.5"
     x="4.25"
     height="1"
     width="3"
     id="rect5731"
     style="fill:#ff531c;fill-opacity:1;stroke:none;stroke-width:0.5;stroke-linecap:butt;stroke-linejoin:miter;stroke-miterlimit:4;stroke-dasharray:none;stroke-dashoffset:0;stroke-opacity:1"
     transform="matrix(0,1,-1,0,0,0)" />
  <path
     style="fill:#e9b96e;fill-opacity:1;stroke:#000000;stroke-width:0.5;stroke-linecap:round;stroke-linejoin:round;stroke-miterlimit:4;stroke-dasharray:none;stroke-dashoffset:0;stroke-opacity:1"
     d="m 722.01172,1.7441406 c -0.28612,0 -0.51758,0.2314609 -0.51758,0.5175782 l 0,0.4765624 c 0,0.021485 0.009,0.039765 0.0117,0.060547 C 721.07386,2.9094632 720.75,3.2825625 720.75,3.75 l 0,4 c 0,0.554 0.446,1 1,1 l 6,0 c 0.554,0 1,-0.446 1,-1 l 0,-4 c 0,-0.554 -0.446,-1 -1,-1 l -3.74609,0 c 9e-5,-0.00411 0.002,-0.00758 0.002,-0.011719 l 0,-0.4765624 c 0,-0.2861173 -0.23146,-0.5175782 -0.51758,-0.5175782 l -1.47656,0 z"
     id="rect5733"
     inkscape:connector-curvature="0" />
  <rect
     style="fill:#f4ddb8;fill-opacity:1;stroke:#000000;stroke-width:0.50108135;stroke-linecap:round;stroke-linejoin:round;stroke-miterlimit:4;stroke-dasharray:none;stroke-opacity:1"
     ry="0.75417608"
     height="4.5250568"
     width="8.064888"
     y="4.3190708"
     x="721.96161"
     id="rect5738"
     transform="matrix(1,0,-0.09275942,0.99568855,0,0)" />
  <g
     id="g5179"
     transform="matrix(0,-1,1,0,743.48201,740.76611)">
    <path
       style="fill:none;stroke:#000000;stroke-width:0.50013185"
       inkscape:connector-curvature="0"
       d="m 735,-9.48201 0,5.5"
       id="path5097" />
    <path
       style="fill:none;stroke:#000000;stroke-width:0.45939001"
       inkscape:connector-curvature="0"
       d="m 733.162,-7.7 1.838,-1.8 1.8376,1.8377"
       id="path5099" />
  </g>
  <rect
     style="fill:#ffffff;stroke:#000000;stroke-width:0.5;stroke-linecap:butt;stroke-linejoin:miter"
     transform="matrix(0,1,-1,0,0,0)"
     ry="0"
     height="6"
     width="8"
     y="-748"
     x="1.0000248"
     id="rect61-6" />
  <g
     transform="matrix(-1,0,0,-1,1480,-2.4340831)"
     id="g5198">
    <path
       id="path5200"
       d="m 735,-9.0985906 0,4.1645075"
       inkscape:connector-curvature="0"
       style="fill:none;stroke:#000000;stroke-width:0.48100054;stroke-miterlimit:4;stroke-dasharray:none" />
    <path
       id="path5202"
       d="m 733.162,-7.4500001 1.838,-1.8 1.8376,1.8377"
       inkscape:connector-curvature="0"
       style="fill:none;stroke:#000000;stroke-width:0.45939001" />
    <path
       style="fill:none;fill-rule:evenodd;stroke:#000000;stroke-width:0.5;stroke-linecap:butt;stroke-linejoin:miter;stroke-miterlimit:4;stroke-dasharray:none;stroke-opacity:1"
       d="m 737,-10.184083 -4,0"
       id="path5206"
       inkscape:connector-curvature="0" />
  </g>
</svg>
