<?xml version="1.0" encoding="UTF-8" standalone="no"?>
<svg xmlns:rdf="http://www.w3.org/1999/02/22-rdf-syntax-ns#" xmlns="http://www.w3.org/2000/svg" height="10" width="4520" version="1.1" xmlns:cc="http://creativecommons.org/ns#" xmlns:xlink="http://www.w3.org/1999/xlink" viewBox="0 0 4520 10" xmlns:dc="http://purl.org/dc/elements/1.1/">
 <defs>
  <pattern id="f" xlink:href="#a" patternTransform="matrix(.48575 .48335 -1.6112 1.6192 311.06 1042)"/>
  <pattern id="c" xlink:href="#a" patternTransform="matrix(.48575 .48335 -1.6112 1.6192 321.1 1041.8)"/>
  <pattern id="a" xlink:href="#d" patternTransform="matrix(2.1266 2.1161 -7.0536 7.0885 3.0046 928.36)"/>
  <pattern id="d" xlink:href="#e" patternTransform="matrix(2.3236 1.8976 -6.3255 7.7452 2.6528 928.01)"/>
  <pattern id="e" xlink:href="#b" patternTransform="matrix(2.3236 1.8976 -6.3255 7.7452 2.6528 1008)"/>
  <pattern id="g" width="2" patternUnits="userSpaceOnUse" patternTransform="translate(0) scale(10)" height="1">
   <rect y="-.5" width="1" height="2" x="0"/>
  </pattern>
  <pattern id="b" xlink:href="#g" patternTransform="matrix(2.3236 1.8976 -6.3255 7.7452 3 4)"/>
 </defs>
 <rect stroke-linejoin="round" ry=".51646" height="1.5106" width="2.5106" stroke="#000" stroke-linecap="round" y="1.7447" x="713.74" stroke-width=".48937" fill="#fff"/>
 <rect transform="matrix(.89160 -.45282 .89160 .45282 0 0)" height="4.1075" width="4.1075" stroke="#000" stroke-linecap="round" y="243.33" x="229.23" stroke-width=".55642" fill="#6d7763"/>
 <g transform="matrix(.86603 .5 -.5 .86603 605.11 -1204.3)">
  <path d="m605.18 1047.3c1.053-0.5756 0.98509-2.1625-0.83098-2.1625h-4.4987c0.148 1.2859 0.93834 1.2538 2.2248 1.25h-0.78385s0.13266 1.2694 1.5236 1.0258c0.39871 0.8573 1.2731 0.7848 1.2731 0.7848l1.2615 0.3783" fill-rule="evenodd" stroke="#000" stroke-width=".5" fill="#fff"/>
  <rect ry="0" transform="matrix(1 0 .60016 .79988 0 0)" height=".62509" width=".90744" y="1307.9" x="-183.36"/>
 </g>
 <g stroke="#000">
  <path stroke-linejoin="round" style="color-rendering:auto;text-decoration-color:#000000;color:#000000;isolation:auto;mix-blend-mode:normal;shape-rendering:auto;solid-color:#000000;block-progression:tb;text-decoration-line:none;image-rendering:auto;white-space:normal;text-indent:0;text-transform:none;text-decoration-style:solid" d="m669.3 4h-1.4931l-1.2364-2.1014c-0.7073-1.2322-2.4865-1.2322-3.1944 0l-1.24 2.1014h-1.64" stroke-width=".491" fill="none"/>
  <g stroke-width=".5">
   <path d="m673 4v-1c0-1.1046 0.89543-2 2-2s2 0.8954 2 2v1" fill="none"/>
   <path d="m654.1 3.7491c0.88535 0.014 1.9809-0.7176 2.7421-2.2676 0.99997-0.0002 0.94262 0.7257 0.94262 0.7257l-0.38265 1.4658s0.87555 0 1.0158 0.036c0.14029 0.034 0.26801 0.1144 0.36189 0.2239 0.0939 0.1095 0.29205 0.4918 0.27935 0.6355-0.074 0.8372-0.30843 1.5822-0.59932 2.5924-0.0335 0.1336-0.0993 0.2601-0.19673 0.3574-0.0974 0.097-0.22389 0.1633-0.35748 0.1968-0.13358 0.033-0.27275 0.035-0.41047 0.035h-3.4999" fill="#fff"/>
   <g transform="translate(0,-1042.4)">
    <path fill="#fff" d="m1045.9-634h-2.5v-5h8v5h-2.75" transform="rotate(90)"/>
    <circle cy="1047.4" cx="555" r="4"/>
    <path fill="#9c3" d="m452 1045.4h7l-1 3.5h-5.25" fill-rule="evenodd"/>
   </g>
   <path stroke-linecap="round" d="m565 1v1" fill="none"/>
   <path stroke-linejoin="round" d="m391.5 2h7v6h-7v-6z" fill-rule="evenodd" stroke-linecap="round" fill="#fff"/>
  </g>
  <path style="color-rendering:auto;text-decoration-color:#000000;color:#000000;isolation:auto;mix-blend-mode:normal;shape-rendering:auto;solid-color:#000000;block-progression:tb;text-decoration-line:none;image-rendering:auto;white-space:normal;text-indent:0;text-transform:none;text-decoration-style:solid" d="m121.5 4v3.2248h-0.5v1.5001h8v-1.5001h-0.5v-3.2248h-0.99999v3.2248h-1v-3.2248h-1v3.2248h-1v-3.2248h-1v3.2248h-1v-3.2248h-0.99999z" fill-rule="evenodd" stroke-width=".50002" fill="#fff"/>
  <g stroke-width=".5">
   <rect ry="0" height="4.5" width="4.5" y="3.7" x="144.75" fill="#99fcae"/>
   <rect stroke-linejoin="round" ry="1" height="6" width="8" stroke-linecap="round" y="2" x="381" fill="#fc0"/>
   <path d="m380.25 4h9.5" fill="none"/>
  </g>
  <path stroke-width="1px" d="m383 6h4" fill="none"/>
 </g>
 <g transform="translate(0,-1042.4)">
  <rect stroke-linejoin="round" ry="0" transform="rotate(90)" height="6" width="8" stroke="#000" stroke-linecap="round" y="-18" x="1043.4" stroke-width=".5" fill="#fff"/>
  <path d="m25.112 1045c-2.4763 0.054-4.3051 2.4661-4.3051 2.4661s1.8674 1.9191 4.3258 1.9163c2.473 0 4.1947-1.9075 4.1947-1.9075s-1.7287-2.5289-4.2155-2.4749z" fill-rule="evenodd" stroke="#000" stroke-width=".5" fill="#fff"/>
  <ellipse cy="1046.8" cx="25.22" rx="2.0803" ry="1.9432"/>
  <circle cy="1046.4" cx="24.549" r=".75" fill="#fff"/>
  <circle stroke-linejoin="round" r="4" cx="35" cy="1047.4" stroke="#000" stroke-linecap="round" stroke-width=".5" fill="#c8e6f3"/>
 </g>
 <g transform="translate(0,-1042.4)" stroke="#000" stroke-width=".5" fill="none">
  <path d="m31 1047.4h8"/>
  <path d="m31.5 1045.4h7"/>
  <path d="m31.5 1049.3h7"/>
  <path d="m35.003 1051.4c1.1229-1.0071 1.7908-2.5034 1.7908-4.0118s-0.66791-3.0047-1.7908-4.0118"/>
  <path d="m35.049 1051.4c-1.1229-1.0071-1.7908-2.5034-1.7908-4.0118s0.66791-3.0047 1.7908-4.0118"/>
 </g>
 <path stroke-linejoin="round" d="m48 2.5v5.4868c0 0.554-0.44601 1-1 1h-4c-0.55401 0-1-0.446-1-1v-5.4474z" stroke="#000" stroke-linecap="round" stroke-width=".5" fill="#ccc"/>
 <g stroke="#000" fill="none">
  <g transform="translate(0,-1042.4)" stroke-width=".45037">
   <path d="m45 1046.5v4"/>
   <path d="m46.775 1046.5v4"/>
   <path d="m43.225 1046.5v4"/>
  </g>
  <g stroke-width=".5">
   <path d="m41 2.5h8"/>
   <path d="m43.459 2.1c0.13134-0.2953 0.35046-0.551 0.62223-0.726 0.27177-0.1749 0.59519-0.2686 0.9184-0.2659 0.32006 0 0.63877 0.1 0.90597 0.2759 0.2672 0.1762 0.48195 0.431 0.61046 0.7241" stroke-linecap="round"/>
   <path stroke-linejoin="round" d="m56.023 3.5h0.97743c0.55401 0 1 0.446 1 1v3.4744c0 0.554-0.44601 1-1 1h-4c-0.55401 0-1-0.446-1-1v-3.4744c0-0.554 0.44601-1 1-1h0.97862"/>
   <path d="m55 0.5v5.4971"/>
  </g>
  <path d="m53.162 2.3 1.838-1.8 1.838 1.8377" stroke-width=".45939"/>
  <path stroke-linejoin="round" d="m66.023 3.5h0.97743c0.55401 0 1 0.446 1 1v3.4744c0 0.554-0.44601 1-1 1h-4c-0.55401 0-1-0.446-1-1v-3.4744c0-0.554 0.44601-1 1-1h0.97862" stroke-width=".5"/>
  <path d="m65 6.6v-5.4971" stroke-width=".5"/>
  <path d="m63.162 4.8 1.838 1.8 1.838-1.8377" stroke-width=".45939"/>
 </g>
 <g stroke="#000">
  <path d="m91.811 1.5c3-0.772 3.1889 1.8636 5.6889 1.3759v4.1024c-2.5 0.3853-3.5708-2.4712-5.5708-1.3523" fill-rule="evenodd" stroke-linecap="square" stroke-width=".5" fill="#9c3"/>
  <g fill="none" transform="translate(0,-1042.4)">
   <path stroke-linejoin="round" d="m86.023 1049.4h0.97743c0.55401 0 1-0.446 1-1v-3.4744c0-0.554-0.44601-1-1-1h-4c-0.55401 0-1 0.446-1 1v3.4744c0 0.554 0.44601 1 1 1h0.97862" stroke-width=".5"/>
   <path d="m85 1045.9v5.4971" stroke-width=".5"/>
   <path d="m83.162 1047.7 1.838-1.8 1.8376 1.8377" stroke-width=".45939"/>
   <path stroke-linejoin="round" d="m76.023 1049.4h0.97743c0.55401 0 1-0.446 1-1v-3.4744c0-0.554-0.44601-1-1-1h-4c-0.55401 0-1 0.446-1 1v3.4744c0 0.554 0.44601 1 1 1h0.97862" stroke-width=".5"/>
   <path d="m73.162 1047.2 1.838-1.8 1.8376 1.8377" stroke-width=".45939"/>
   <path d="m75 1045.4v3.0821c0 2.915-2 2.915-2.9744 2.9234" stroke-width=".5"/>
   <path d="m75 1045.4v3.0821c0 2.915 2 2.915 2.9744 2.9234" stroke-width=".5"/>
  </g>
  <g transform="translate(0,-1042.4)">
   <path d="m125 1043.4-4 2.0001v1.0001h8v-1.0001l-4-2z" fill-rule="evenodd" stroke-width=".50002" fill="#fff"/>
   <g stroke-linejoin="round" stroke-width=".5" stroke-linecap="round">
    <rect transform="scale(1,-1)" height="6.5149" width="8.0333" y="-1050.4" x="130.98" fill="#fff"/>
    <rect height="1.3808" width="7.9156" y="1044" x="131.04" fill="#f60"/>
    <circle cy="1049.1" cx="136.72" r="2.5042" fill="#fff"/>
   </g>
  </g>
  <g stroke-width=".5">
   <path d="m135.83 6.3 0.89671 0.4009 1.4835-0.938" fill="none"/>
   <g transform="translate(0,-1042.4)">
    <path d="m103.51 1042.9c-0.13513 0.478-0.0337 1.0169 0.26602 1.4131 0.29971 0.3962 0.7907 0.6404 1.2875 0.6404 0.49676 0 0.98775-0.2442 1.2875-0.6404 0.2997-0.3962 0.40115-0.9351 0.26602-1.4131" fill="none"/>
    <ellipse stroke-linejoin="round" stroke-linecap="square" rx="1.5282" ry="1.0418" cy="1044.6" cx="105" fill="#ff9674"/>
    <g fill="none">
     <path d="m103.24 1046.8c-1.0145-0.019-1.0705 0.5103-2.7384 0.5169"/>
     <path d="m106.76 1046.8c1.0145-0.019 1.0705 0.5103 2.7385 0.5169"/>
     <path d="m103.55 1048.4c-3.5455-0.063-2 0.9814-2.0307 2.9573"/>
     <path d="m106.51 1048.4c3.4905-0.08 2 0.9814 2.0307 2.9573"/>
     <path d="m103.53 1046.4c-1 0.019-2-0.9814-2.0307-2.9573"/>
     <path d="m106.51 1046.3c1 0.019 2-0.9814 2.0307-2.9573"/>
    </g>
    <path stroke-linejoin="round" d="m102.91 1050.2-0.59544-3.5234c0.68786-1.3324 1.0985-1.253 2.6974-1.243 1.5989-0.01 1.9905-0.089 2.7341 1.243l-0.65148 3.5877c-1.0922 1.0795-3.0922 1.0795-4.1846-0.064z" fill-rule="evenodd" stroke-linecap="round" fill="#ff9674"/>
    <path d="m105 1051.4v-6" fill="none"/>
    <g stroke="#000">
     <path stroke-linejoin="round" d="m435 1051.8-3.7816-2.1833v-4.3667l3.7816-2.1833 3.7816 2.1833v4.3667z" stroke-linecap="round" stroke-width=".43667" fill="#fff"/>
     <path stroke-linejoin="round" d="m434.99 1047.5 0.00008 4.3665v0l-3.7817-2.1832-0.00006-4.3667v0z" stroke-linecap="round" stroke-width=".43667" fill="#e0e8e7"/>
     <path d="m435.02 1047.5 3.7135-2.144" stroke-width=".5" fill="none"/>
     <path d="m433.1 1046.3 3.7135-2.144" stroke-width=".5" fill="none"/>
    </g>
   </g>
   <rect ry="0" height="5" width="5" y="2.5" x="302.5" fill="#99fcae"/>
  </g>
 </g>
 <g transform="matrix(.015358 0 0 .015358 214.06 -4)">
  <path d="m-86.985 789.57c-6.1021-2.458-8.6465-14.336-8.6732-40.49-0.02208-21.653 1.4985-31.065 8.3385-51.612 12.978-38.986 41.4-72.773 76.584-91.04l10.058-5.2219-5.0579-4.1207c-10.789-8.79-20.393-23.949-24.746-39.062-1.8623-6.4645-2.2769-10.271-2.2269-20.443 0.0533-10.859 0.42617-13.616 2.8397-21 7.5399-23.068 20.745-38.576 41.576-48.826l9.5-4.6744-4.2273-6.3067c-8.4643-12.628-11.098-27.791-7.2833-41.93 4.2454-15.734 12.733-26.073 27.298-33.251 18.815-9.2736 38.611-9.2736 57.426 0 14.565 7.1787 23.052 17.518 27.298 33.251 3.8149 14.138 1.181 29.302-7.2833 41.93l-4.2273 6.3067 9.5 4.6744c20.831 10.25 34.036 25.757 41.576 48.826 2.4135 7.384 2.7863 10.141 2.8397 21 0.05 10.173-0.36464 13.979-2.2269 20.443-4.3535 15.112-13.957 30.272-24.746 39.062l-5.0579 4.1207 10.058 5.2219c35.184 18.267 63.606 52.054 76.584 91.04 6.84 20.547 8.3606 29.959 8.3385 51.612-0.0272 26.65-2.5648 38.105-8.9823 40.545-3.2302 1.2281-302.02 1.175-305.07-0.0542l-0.000004 0.00001z"/>
  <path d="m208.44 769.83c0.42297-1.5125 0.73972-11.075 0.70389-21.25-0.0726-20.618-1.7574-31.251-7.5562-47.688-14.2-40.25-47.259-73.644-86.879-87.759-9.9597-3.5483-11.779-4.8587-12.565-9.049-0.97839-5.2153 1.256-7.7 11.267-12.529 31.243-15.071 42.623-53.871 24.812-84.593-4.8302-8.3315-16.117-18.591-25.647-23.314-7.9583-3.9435-12.1-4.9976-25.971-6.6102-5.1383-0.59737-8.5289-3.1444-9.538-7.165-1.0482-4.1766 1.5113-7.4582 8.6019-11.028 8.0467-4.0516 13.362-9.1852 16.838-16.263 2.3597-4.8043 2.7014-6.7017 2.7014-15 0-8.3641-0.33238-10.177-2.7798-15.161-3.4476-7.0204-8.99-12.123-17.597-16.201-6.3253-2.997-7.1859-3.1382-19.123-3.1382-11.938 0-12.798 0.14122-19.123 3.1382-8.6068 4.078-14.149 9.1809-17.597 16.201-2.4474 4.9837-2.7798 6.7964-2.7798 15.161 0 8.2983 0.34172 10.196 2.7014 15 3.4765 7.078 8.7916 12.212 16.838 16.263 7.0906 3.5702 9.6502 6.8519 8.6019 11.028-1.0091 4.0205-4.3997 6.5676-9.538 7.165-13.871 1.6126-18.012 2.6667-25.971 6.6102-9.5298 4.7222-20.816 14.982-25.647 23.314-7.2738 12.546-9.9791 27.842-7.5117 42.47 2.9464 17.468 15.719 34.113 32.324 42.123 10.011 4.8292 12.245 7.3139 11.267 12.529-0.78611 4.1904-2.6057 5.5008-12.565 9.049-39.62 14.115-72.679 47.509-86.879 87.759-5.7988 16.437-7.4836 27.07-7.5562 47.688-0.0358 10.175 0.28092 19.738 0.7039 21.25l0.76905 2.75h283.92l0.76905-2.75z"/>
 </g>
 <g transform="matrix(.013898 0 0 .013898 217.04 -4.8)">
  <path d="m186 482.9c-29.18-1.53-57.03-8.5-78.35-19.6-10.411-5.43-13.65-8.39-13.65-12.48 0.000002-1.3811 4.2714-12.318 9.4921-24.304l9.4921-21.793-8.9235-20.483-8.923-20.48-18.239-22.33c-10.031-12.28-18.697-22.92-19.257-23.65s-5.775-39.35-11.588-85.81l-10.569-84.48-6.613-2.22c-8.08-2.72-13.149-6.46-17.016-12.54-6.8265-10.75-7.4802-22.35-1.8982-33.687 5.7162-11.611 16.183-17.819 30.043-17.819 13.86-0.000002 24.327 6.2086 30.043 17.819 6.6247 13.457 4.6681 25.645-6.433 40.074-0.57742 0.75052 9.2491 21.998 27.992 60.526l28.882 59.37 4.1912-72.953c2.3051-40.124 4.2212-74.407 4.2579-76.183 0.0569-2.7502-0.48993-3.5166-3.6832-5.1627-6.7324-3.4704-12.027-8.9088-15.458-15.879-8.4036-17.07-1.0212-36.417 17.208-45.097 11.28-5.3709 25.128-2.9333 35.708 6.2854 2.4937 2.1728 5.5492 6.3908 7.5 10.354 2.8406 5.77 3.292 7.7212 3.292 14.229-0.00001 6.5079-0.45141 8.459-3.292 14.229-1.9344 3.9294-4.9567 8.1119-7.3289 10.142l-4.0369 3.4554 24.829 72.071c13.656 39.639 25.074 72.078 25.373 72.087 0.29949 0.009 6.8534-36.316 14.564-80.721l14.02-80.737-4.2925-2.8432c-9.57-6.346-14.82-16.161-14.83-27.715-0.0117-13.445 7.4111-24.618 20.493-30.847 7.786-3.7073 18.214-3.7073 26 0 8.1508 3.881 13.45 9.0046 17.208 16.639 2.8414 5.7718 3.2911 7.7163 3.2854 14.208-0.0101 11.554-5.2636 21.368-14.829 27.705l-4.2925 2.8432 14.02 80.737c7.7108 44.405 14.265 80.73 14.564 80.721 0.2995-0.009 11.718-32.447 25.373-72.087l24.829-72.071-4.0369-3.4554c-2.3722-2.0305-5.3944-6.213-7.3289-10.142-8.4036-17.07-1.0212-36.417 17.208-45.097 7.786-3.7073 18.214-3.7073 26 0 8.1508 3.881 13.45 9.0046 17.208 16.639 2.8406 5.77 3.292 7.7212 3.292 14.229 0.00001 6.5079-0.45141 8.459-3.292 14.229-3.4312 6.9698-8.7256 12.408-15.458 15.879-3.1933 1.6461-3.7401 2.4125-3.6832 5.1627 0.0367 1.7763 1.9528 36.059 4.2579 76.183l4.1912 72.953 28.882-59.37c18.743-38.528 28.569-59.776 27.992-60.526-11.101-14.429-13.058-26.617-6.433-40.074 5.7158-11.61 16.184-17.819 30.043-17.819 13.86-0.000002 24.327 6.2086 30.043 17.819 5.582 11.339 4.9283 22.94-1.8978 33.683-3.8673 6.0859-8.9368 9.8221-17.017 12.541l-6.6124 2.2253-10.569 84.478c-5.8132 46.463-11.028 85.076-11.588 85.807-0.56019 0.73138-9.226 11.377-19.257 23.658l-18.239 22.328-8.9235 20.483-8.9235 20.483 9.4921 21.793c5.2207 11.986 9.4921 22.923 9.4921 24.304 0.00001 4.0951-3.2393 7.0564-13.654 12.482-16.514 8.6037-36.606 14.695-59.288 17.975-8.5164 1.2314-23.606 1.564-78.057 1.7208-37.125 0.10686-69.975 0.0645-73-0.094l0.00001-0.00001z" transform="translate(319.92,446.86)"/>
  <path d="m260.08 68.322c5.1828-3.4927 7.9217-8.2385 7.9217-13.726 0.00001-12.207-14.266-20.339-24.078-13.726-5.1828 3.4927-7.9217 8.2385-7.9217 13.726-0.00001 12.207 14.266 20.339 24.078 13.726l0.00001 0.000002z" transform="translate(319.92,446.86)"/>
  <path d="m372.08 88.322c5.1828-3.4927 7.9217-8.2385 7.9217-13.726 0.00001-5.4877-2.7389-10.234-7.9217-13.726-9.8128-6.6128-24.078 1.5195-24.078 13.726 0.00001 12.207 14.266 20.339 24.078 13.726l0.00001 0.000002z" transform="translate(319.92,446.86)"/>
  <path d="m148.08 88.322c10.64-7.1703 10.64-20.282 0.00001-27.452-9.8128-6.6128-24.078 1.5195-24.078 13.726 0 12.207 14.266 20.339 24.078 13.726l-0.00001 0.000002z" transform="translate(319.92,446.86)"/>
  <path d="m471.98 127.84c5.1751-2.6001 8.0199-7.4769 8.0199-13.748 0.00001-9.2271-6.4733-15.497-16-15.497s-16 6.2698-16 15.497c0.00001 9.2271 6.4733 15.497 16 15.497 2.475 0.00001 6.066-0.7868 7.9801-1.7484h-0.00001z" transform="translate(319.92,446.86)"/>
  <path d="m47.98 127.84c10.821-5.4368 10.821-22.06 0-27.497-4.4519-2.2367-11.508-2.2367-15.96 0-10.821 5.4368-10.821 22.06 0 27.497 1.914 0.96164 5.5051 1.7484 7.9801 1.7484 2.475 0.00001 6.066-0.7868 7.9801-1.7484z" transform="translate(319.92,446.86)"/>
  <path d="m230.92 268.01c3.6207-1.9749 8.608-5.2773 11.083-7.3386 8.9658-7.4673 11.334-7.5581 19.135-0.73408 4.4496 3.8924 18.591 12.333 19.296 11.518 0.47199-0.54625-27.864-162.85-28.431-162.85-0.27501-0.00027-6.7535 36.11-14.397 80.246-7.6432 44.136-14.104 80.809-14.357 81.497-0.70957 1.9268 0.55311 1.5415 7.6706-2.3407v-0.00001z" transform="translate(319.92,446.86)"/>
  <path d="m366.53 274.85c-0.32586-3.7125-2.3771-38.925-4.5584-78.25-2.1812-39.325-4.0794-72.689-4.2181-74.142-0.14627-1.5326-11.339 29.543-26.654 74-14.521 42.153-26.634 77.276-26.918 78.051-0.8598 2.3452 12.983 0.49773 22.792-3.0418 12.509-4.5141 14.338-4.6336 18.783-1.228 3.7119 2.844 19.007 11.276 20.556 11.331 0.44582 0.0161 0.54395-3.0083 0.21809-6.7208l0.00001 0.00001z" transform="translate(319.92,446.86)"/>
  <path d="m145.27 277.98c3.9738-1.9912 9.3754-5.189 12.004-7.1061 5.6083-4.0909 6.8724-4.0529 19.749 0.59391 9.8086 3.5396 23.652 5.3871 22.792 3.0418-0.28415-0.77507-12.397-35.898-26.918-78.051-15.314-44.457-26.507-75.533-26.654-74-0.13869 1.4532-2.0368 34.817-4.2181 74.142-2.1812 39.325-4.2325 74.538-4.5584 78.25-0.32586 3.7125-0.32898 6.75-0.007 6.75 0.32204-0.00001 3.8368-1.6292 7.8106-3.6205l-0.00001-0.00001z" transform="translate(319.92,446.86)"/>
  <path d="m439.94 232.1c4.4003-35.143 7.8688-64.028 7.7078-64.189-0.25193-0.25193-55.916 113.73-57.431 117.6-0.46629 1.1912 1.073 1.2843 9.8664 0.59695 17.731-1.386 16.73-1.5786 24.47 4.7073 3.8141 3.0973 7.0361 5.5302 7.16 5.4062 0.12391-0.12393 3.8256-28.978 8.2259-64.121l-0.00001-0.00001z" transform="translate(319.92,446.86)"/>
  <path d="m86.55 285.77c1.9861-1.0412 3.9855-1.0943 9.4269-0.25001 9.7051 1.5058 18.373 1.4186 17.746-0.17847-1.4883-3.7924-57.124-117.68-57.369-117.44-0.1611 0.16111 3.2878 28.844 7.6641 63.74 4.3764 34.896 7.9624 63.815 7.9691 64.264 0.0066 0.44898 2.7187-1.351 6.0268-4s7.149-5.411 8.5354-6.1379l0.000002 0.00001z" transform="translate(319.92,446.86)"/>
  <path d="m113.07 346.04c90.159-31.009 187.7-31.007 277.87 0.006 4.094 1.408 7.7647 2.2198 8.157 1.8038 2.4263-2.5726 26.85-32.848 26.829-33.256-0.0145-0.27501-3.2262-3.0081-7.1371-6.0736l-7.1108-5.5736-5.5908 0.91885c-17.341 2.8502-42.847-2.7501-61.382-13.478l-6.7914-3.9306-7.7086 2.53c-25.172 8.2617-50.439 4.7571-72.959-10.12l-5.25-3.4682-5.25 3.4682c-12.753 8.4245-27.442 13.427-42.299 14.406-10.355 0.68197-19.357-0.57645-30.659-4.286l-7.7085-2.53-6.7915 3.9306c-18.535 10.728-44.041 16.328-61.382 13.478l-5.5908-0.91885-7.107 5.5736c-3.9089 3.0655-7.018 5.8919-6.9092 6.2809 0.17058 0.61002 26.908 33.793 27.229 33.793 0.0651-0.00001 3.4596-1.1492 7.5435-2.5538v-0.00001z" transform="translate(319.92,446.86)"/>
  <path fill="#fff" d="m151.2 384.76c66.181-21.421 135.42-21.421 201.6-0.00001 8.4153 2.7238 17.267 5.7953 19.67 6.8254 3.166 1.3571 4.5066 1.5479 4.8678 0.69281 0.27419-0.64906 3.177-7.31 6.4506-14.802l5.9521-13.622-3.6205-1.1581c-66.974-21.422-125.78-26.955-191.62-18.029-24.828 3.3661-47.343 8.6638-76.62 18.029l-3.6205 1.158 5.9521 13.622c3.2737 7.4921 6.1765 14.153 6.4506 14.802 0.36123 0.85511 1.7018 0.66431 4.8678-0.69281 2.4031-1.0301 11.255-4.1015 19.67-6.8254v0.00001z" transform="translate(319.92,446.86)"/>
  <path d="m151.5 426.08c19.551-4.8278 40.859-8.5762 60.5-10.643 16.286-1.7136 63.714-1.7136 80 0 27.32 2.8746 65.824 10.761 85.75 17.562 3.9875 1.3611 7.25 2.2933 7.25 2.0714 0.00001-0.22186-2.1914-5.4826-4.8697-11.69-5.7949-13.431-4.8666-12.782-30.355-21.236-17.345-5.7528-37.266-10.235-58.775-13.224-17.526-2.4355-60.474-2.4355-78 0-21.51 2.9891-41.431 7.4712-58.775 13.224-25.488 8.4539-24.56 7.8044-30.355 21.236-2.6784 6.2078-4.8697 11.469-4.8697 11.69 0 0.22189 3.2625-0.71025 7.25-2.0714s15.35-4.475 25.25-6.9196l0.00001 0.00001z" transform="translate(319.92,446.86)"/>
  <path d="m337 463.28c13.855-2.006 22.504-4.0225 33.865-7.8955l9.3651-3.1927-6.8651-2.326c-11.195-3.793-37.782-10.044-53.865-12.665-24.902-4.0577-38.429-5.0748-67.5-5.0748-29.071 0.00001-42.598 1.017-67.5 5.0748-16.083 2.6208-42.67 8.8722-53.865 12.665l-6.8651 2.326 9.3651 3.2098c15.148 5.1917 33.458 8.4818 52.865 9.4989 3.025 0.15855 35.875 0.20085 73 0.094 54.334-0.15635 69.548-0.49078 78-1.7145l-0.00001-0.00001z" transform="translate(319.92,446.86)"/>
 </g>
 <g transform="matrix(.56135 0 0 .56135 196.25 -615.85)">
  <g transform="translate(-29.537,456.12)">
   <path stroke="#000" d="m49.871 649.31c0 1.302-0.52775 2.4808-1.381 3.3341-0.42663 0.42663 0.47895 0.46597-0.06912 1.4098-0.54808 0.94388-2.5498 1.4761-3.2008 1.4761-0.65102 0-2.7945-0.62336-3.3746-1.5672-0.58013-0.94387 0.40309-0.89204-0.02354-1.3187-0.85326-0.85326-1.381-2.032-1.381-3.3341 0-1.302 0.52776-2.4808 1.381-3.3341 0.66918-0.66919 1.5386-1.1382 2.5106-1.3094 0.26739-0.0471 0.58813-0.75542 0.86902-0.75542 0.28581 0 0.5201 0.70919 0.79189 0.75791 0.96638 0.17323 1.8306 0.6409 2.4966 1.3069 0.85326 0.85326 1.381 2.032 1.381 3.3341z"/>
   <path fill="#fff" d="m49.871 649.31c-1.9068 6.1489-3.5463 1.7438-4.7151 1.5953-1.2927 0.1601-3.0865 4.7481-4.7151-1.5953-0.92618-3.6075 0.9152-4.5081 4.7151-4.7151 4.4684-0.24339 5.799 1.2196 4.7151 4.7151z" transform="matrix(.74008 0 0 .43158 11.671 369.95)"/>
   <circle cy="650.04" cx="43.478" r=".45337" transform="matrix(.90336 0 0 .90336 3.9643 62.556)"/>
   <circle cy="650.04" cx="43.478" r=".45337" transform="matrix(.90336 0 0 .90336 7.6187 62.493)"/>
  </g>
 </g>
 <g stroke="#000" transform="matrix(1.0983 0 0 1.0983 -17.877 -1144.9)">
  <path stroke-width=".45684" d="m184.01 1050 2.4233-2.7798-1.4271 0.4982z"/>
  <path stroke-linejoin="round" stroke-width=".45684" d="m181.31 1046.8 1.7306 0.8415 1.0157 2.2477 0.72518-1.5537 2.1281 1.1741 1.2278-5.7943z" fill="#fff"/>
  <path stroke-width=".22842px" stroke-linecap="square" d="m183.32 1047.5 4.7137-3.745-3.3429 4.4039-0.5616 1.3138" fill="#d4d4d4"/>
 </g>
 <g transform="matrix(-.16438 -.16438 -.16438 .16438 375.92 -156.24)">
  <path d="m65 25 7 11v2l-6.9517-3.3381" transform="translate(0,1012.4)" stroke="#000" stroke-width="2" fill="#fff"/>
  <path stroke="#000" stroke-width="2" d="m55 1037.4-7 11v2l7.1449-3.4347" fill="#fff"/>
  <path fill="#ff8f1c" d="m55 35c-3 6 1.0421 11.886 5.0421 15.886 4-4 7.958-9.886 4.958-15.886" transform="translate(0,1012.4)"/>
  <path d="m57 1047.4c-2.6148 4.5722 0.04207 9.0575 3.0421 13.058 3-4 5.6569-8.4853 2.9579-13.058" fill="#fff742"/>
  <path d="m54.903 12.58 0.097 22.42h10l-0.097-22.42c-0.01078-2.5024-5-7-5-7s-5.0127 4.0629-5 7z" transform="translate(0,1012.4)" stroke="#000" stroke-width="2" fill="#fff"/>
 </g>
 <path stroke="#000" stroke-width=".46495" d="m193.14 6.9 2.319-2.373" fill="none"/>
 <g transform="matrix(.49813 0 0 .49813 120.6 -319.98)">
  <path stroke="#000" d="m49.871 649.31c0 1.302-0.52775 2.4808-1.381 3.3341-0.42663 0.42663 0.47895 0.46597-0.06912 1.4098-0.54808 0.94388-2.5498 1.4761-3.2008 1.4761-0.65102 0-2.7945-0.62336-3.3746-1.5672-0.58013-0.94387 0.40309-0.89204-0.02354-1.3187-0.85326-0.85326-1.381-2.032-1.381-3.3341 0-1.302 0.52776-2.4808 1.381-3.3341 0.66918-0.66919 1.5386-1.1382 2.5106-1.3094 0.26739-0.0471 0.58813-0.75542 0.86902-0.75542 0.28581 0 0.5201 0.70919 0.79189 0.75791 0.96638 0.17323 1.8306 0.6409 2.4966 1.3069 0.85326 0.85326 1.381 2.032 1.381 3.3341z"/>
  <path fill="#fff" d="m49.871 649.31c-1.9068 6.1489-3.5463 1.7438-4.7151 1.5953-1.2927 0.1601-3.0865 4.7481-4.7151-1.5953-0.92618-3.6075 0.9152-4.5081 4.7151-4.7151 4.4684-0.24339 5.799 1.2196 4.7151 4.7151z" transform="matrix(.74008 0 0 .43158 11.671 369.95)"/>
  <circle cy="650.04" cx="43.478" r=".45337" transform="matrix(.90336 0 0 .90336 3.9643 62.556)"/>
  <circle cy="650.04" cx="43.478" r=".45337" transform="matrix(.90336 0 0 .90336 7.6187 62.493)"/>
 </g>
 <rect ry="0" height="4.5" width="4.5" stroke="#000" y="3.5" x="164.75" stroke-width=".5" fill="#99fcae"/>
 <g transform="matrix(.49813 0 0 .49813 140.6 -319.98)">
  <path stroke="#000" d="m49.871 649.31c0 1.302-0.52775 2.4808-1.381 3.3341-0.42663 0.42663 0.47895 0.46597-0.06912 1.4098-0.54808 0.94388-2.5498 1.4761-3.2008 1.4761-0.65102 0-2.7945-0.62336-3.3746-1.5672-0.58013-0.94387 0.40309-0.89204-0.02354-1.3187-0.85326-0.85326-1.381-2.032-1.381-3.3341 0-1.302 0.52776-2.4808 1.381-3.3341 0.66918-0.66919 1.5386-1.1382 2.5106-1.3094 0.26739-0.0471 0.58813-0.75542 0.86902-0.75542 0.28581 0 0.5201 0.70919 0.79189 0.75791 0.96638 0.17323 1.8306 0.6409 2.4966 1.3069 0.85326 0.85326 1.381 2.032 1.381 3.3341z"/>
  <path fill="#fff" d="m49.871 649.31c-1.9068 6.1489-3.5463 1.7438-4.7151 1.5953-1.2927 0.1601-3.0865 4.7481-4.7151-1.5953-0.92618-3.6075 0.9152-4.5081 4.7151-4.7151 4.4684-0.24339 5.799 1.2196 4.7151 4.7151z" transform="matrix(.74008 0 0 .43158 11.671 369.95)"/>
  <circle cy="650.04" cx="43.478" r=".45337" transform="matrix(.90336 0 0 .90336 3.9643 62.556)"/>
  <circle cy="650.04" cx="43.478" r=".45337" transform="matrix(.90336 0 0 .90336 7.6187 62.493)"/>
 </g>
 <g stroke="#000" stroke-width=".5" transform="translate(0,-1042.4)" fill="none">
  <path d="m161 1051.6h8"/>
  <path d="m163 1048.4v3"/>
  <path d="m167 1050.4v1"/>
 </g>
 <g stroke="#000" stroke-width=".5" transform="translate(0,-1042.4)" fill="#99fcae">
  <rect ry="0" height="4.5" width="4.5" y="1046.1" x="174.75"/>
  <rect ry="0" height="4.5" width="4.5" y="1045.5" x="244.77"/>
  <rect ry="0" height="7.5" width="7.5" y="1043.6" x="151.25"/>
 </g>
 <g transform="matrix(.47936 0 0 .47936 133.35 -306.52)">
  <path stroke="#000" d="m49.871 649.31c0 1.302-0.52775 2.4808-1.381 3.3341-0.42663 0.42663 0.47895 0.46597-0.06912 1.4098-0.54808 0.94388-2.5498 1.4761-3.2008 1.4761-0.65102 0-2.7945-0.62336-3.3746-1.5672-0.58013-0.94387 0.40309-0.89204-0.02354-1.3187-0.85326-0.85326-1.381-2.032-1.381-3.3341 0-1.302 0.52776-2.4808 1.381-3.3341 0.66918-0.66919 1.5386-1.1382 2.5106-1.3094 0.26739-0.0471 0.58813-0.75542 0.86902-0.75542 0.28581 0 0.5201 0.70919 0.79189 0.75791 0.96638 0.17323 1.8306 0.6409 2.4966 1.3069 0.85326 0.85326 1.381 2.032 1.381 3.3341z"/>
  <path fill="#fff" d="m49.871 649.31c-1.9068 6.1489-3.5463 1.7438-4.7151 1.5953-1.2927 0.1601-3.0865 4.7481-4.7151-1.5953-0.92618-3.6075 0.9152-4.5081 4.7151-4.7151 4.4684-0.24339 5.799 1.2196 4.7151 4.7151z" transform="matrix(.74008 0 0 .43158 11.671 369.95)"/>
  <circle cy="650.04" cx="43.478" r=".45337" transform="matrix(.90336 0 0 .90336 3.9643 62.556)"/>
  <circle cy="650.04" cx="43.478" r=".45337" transform="matrix(.90336 0 0 .90336 7.6187 62.493)"/>
 </g>
 <path stroke="#000" stroke-width=".5" d="m238 6.5 1.2-1.1416-1.2-1.1415" fill="none"/>
 <g transform="matrix(.095964 0 0 .095472 233.03 0)">
  <circle cy="8.159" cx="18.118" r="8.159"/>
  <path d="m8.472 95.426c0 2.524 1.8044 4.5466 4.3284 4.5466 2.529 0 4.6033-2.0226 4.6033-4.5466l-0.14242-38.885h2.8769l-0.02419 38.885c0 2.524 1.8297 4.574 4.3557 4.574s4.3274-2.05 4.3274-4.574l0.12803-66.158h2.7622l-0.14404 24.38c-0.02235 3.7827 5.9659 3.9277 5.9519 0l0.21606-24.936c0.047-5.418-3.688-10.692-10.027-10.692l-18.288-0.008c-5.777 0-9.396 4.71-9.396 10.587v25.05c0 4.2899 5.8358 3.4206 5.8208 0.0362l-0.108-24.452 2.7682 0.036z"/>
 </g>
 <g transform="translate(0,-1042.4)" fill="#fff">
  <path stroke="#000" stroke-width=".5" d="m275.11 1045c-2.4763 0.054-4.3051 2.4661-4.3051 2.4661s1.8674 1.9191 4.3258 1.9163c2.473 0 4.1947-1.9075 4.1947-1.9075s-1.7287-2.5289-4.2155-2.4749z" fill-rule="evenodd"/>
  <circle cy="1046.4" cx="274.55" r=".75"/>
  <path stroke="#000" stroke-width=".5" d="m285.11 1045c-2.4763 0.054-4.3051 2.4661-4.3051 2.4661s1.8674 1.9191 4.3258 1.9163c2.473 0 4.1947-1.9075 4.1947-1.9075s-1.7287-2.5289-4.2155-2.4749z" fill-rule="evenodd"/>
 </g>
 <g transform="translate(0,-1042.4)">
  <ellipse cy="1046.8" cx="285.22" rx="2.0803" ry="1.9432"/>
  <circle cy="1047.1" cx="284.59" r=".75" fill="#fff"/>
  <path d="m295.11 1045c-2.4763 0.054-4.3051 2.4661-4.3051 2.4661s1.8674 1.9191 4.3258 1.9163c2.473 0 4.1947-1.9075 4.1947-1.9075s-1.7287-2.5289-4.2155-2.4749z" fill-rule="evenodd" stroke="#000" stroke-width=".5" fill="#fff"/>
  <ellipse cy="1046.8" cx="295.22" rx="2.0803" ry="1.9432"/>
  <circle cy="1046.4" cx="294.55" r=".75" fill="#fff"/>
 </g>
 <g stroke="#000" stroke-width=".5" transform="translate(0,-1042.4)" fill="none">
  <path d="m275 1049.4v1.8028"/>
  <path d="m276.72 1049.3 0.60563 1.4732"/>
  <path d="m278.41 1048.4 0.96056 1.0394"/>
  <path d="m273.28 1049.3-0.60563 1.4732"/>
  <path d="m271.7 1048.3-0.96056 1.0394"/>
 </g>
 <g transform="translate(0,-1042.4)">
  <g stroke="#000" stroke-width=".5">
   <path fill="#fff" d="m285.03 1045c-2.4763 0.054-3.8257 1.965-3.8257 1.965 3.0199 0.074 4.476 0 7.6863-0.08 0 0-1.3738-1.9374-3.8605-1.8834z" fill-rule="evenodd"/>
   <rect ry="0" height="5" width="5" y="1044.9" x="322.5" fill="#99fcae"/>
   <rect ry="0" height="5" width="5" y="1044.9" x="312.5" fill="#99fcae"/>
  </g>
  <rect opacity=".5" ry="0" height="3.6547" width="4.5684" y="1046.1" x="312.65" fill="url(#f)"/>
  <rect opacity=".5" ry="0" height="1.1421" width="4.5684" y="1048.5" x="322.7" fill="url(#c)"/>
  <path d="m246.5 1048.9 1.5-1.1416-1.5-1.1415" fill-rule="evenodd"/>
 </g>
 <g stroke="#000">
  <g stroke-width=".5" transform="matrix(.70711 .70711 -.70711 .70711 745.33 -747.34)" fill-rule="evenodd">
   <path d="m15.793 1048.9v-4.8284h1.4142v4.8284l-0.70711 1.5355-0.70711-1.5355z" fill="#ffc022"/>
   <path stroke-linejoin="round" d="m15.793 1048.9h1.4142l-0.70711 1.5355-0.70711-1.5355z" fill="#fff"/>
  </g>
  <g stroke-width=".5" transform="translate(0,-1042.4)" fill="none">
   <path d="m91.75 1043.4v8"/>
   <path d="m171 1051.6h8"/>
   <path d="m173 1047.4v4"/>
   <path d="m177 1050.4v1"/>
  </g>
  <g stroke-width=".58046" stroke-linecap="round" transform="matrix(.86138 0 0 .86138 31.625 -872.5)" fill="#fff">
   <circle cy="1016.7" cx="165.03" r="2.5112"/>
   <path d="m164.12 1018.9a1.6784 1.6784 0 0 1 -2.0221 -0.033 1.6784 1.6784 0 0 1 -0.52231 -1.9538 1.6784 1.6784 0 0 1 1.7358 -1.0378"/>
   <path d="m166.75 1016.6a1.4781 1.4781 0 0 1 1.6456 -0.2273 1.4781 1.4781 0 0 1 0.81764 1.4461 1.4781 1.4781 0 0 1 -1.0431 1.2929 1.4781 1.4781 0 0 1 -1.5863 -0.4933"/>
  </g>
  <g stroke-width=".5" transform="translate(0,-1042.4)">
   <path d="m241 1047.7h6" fill="none"/>
   <path d="m231 1047.7h8.1" fill="none"/>
   <rect ry="0" height="4.5" width="4.5" y="1047.1" x="264.77" fill="#a6c8ad"/>
   <path d="m266.5 1050.5 1.2-1.1416-1.2-1.1415" fill="none"/>
   <path d="m262.99 1047.9-0.0228 1.432h4.6355" fill="none"/>
   <rect ry="0" height="4.5" width="4.5" y="1043.5" x="260.77" fill="#99fcae"/>
   <path d="m262.35 1046.8 1.2499-1.1416-1.2499-1.1415" fill="none"/>
   <path d="m260 1045.6h3.3" fill="none"/>
   <rect ry="0" height="4.5" width="4.5" y="1045.5" x="244.77" fill="#99fcae"/>
   <path d="m246.5 1048.9 1.2-1.1416-1.2-1.1415" fill="none"/>
   <path d="m241 1047.7h6.6" fill="none"/>
   <rect ry="0" height="4.5" width="4.5" y="1045.5" x="254.77" fill="#99fcae"/>
  </g>
 </g>
 <path d="m256.5 6.5 1.5-1.1416-1.5-1.1415" fill-rule="evenodd"/>
 <g stroke="#000">
  <g stroke-width=".5">
   <g transform="translate(0,-1042.4)">
    <path d="m251 1047.7h6" fill="none"/>
    <rect ry="0" height="4.5" width="4.5" y="1045.5" x="254.77" fill="#99fcae"/>
    <path d="m256.5 1048.9 1.2-1.1416-1.2-1.1415" fill="none"/>
    <path d="m251 1047.7h6.6" fill="none"/>
   </g>
   <path d="m393 3.4h4" fill="none"/>
   <path d="m395 3.4v3.5" fill="none"/>
   <rect ry="0" transform="rotate(90)" height="6" width="8" stroke-linecap="round" y="-418" x="1" fill="#fff"/>
   <g transform="translate(0,-1042.4)" fill="none">
    <path d="m413 1045.4h4"/>
    <path d="m413 1046.4h4"/>
    <path d="m413 1047.4h4"/>
   </g>
  </g>
  <g transform="translate(0,-1042.4)">
   <path stroke-width=".48238" d="m133 1042.9v1.7192" fill="none"/>
   <path stroke-width=".48238" d="m137 1042.9v1.7192" fill="none"/>
   <rect stroke-linejoin="round" transform="rotate(-90)" height="5.0655" width="4.937" stroke-linecap="round" y="441.16" x="-1048.4" stroke-width=".5" fill="#ffe680"/>
   <rect stroke-linejoin="round" transform="rotate(-90)" height="5.0655" width="4.937" stroke-linecap="round" y="442.58" x="-1049.9" stroke-width=".5" fill="#fea"/>
  </g>
  <g stroke-linejoin="round" stroke-linecap="round">
   <rect transform="rotate(-90)" height="5.0655" width="4.937" y="443.79" x="-8.8" stroke-width=".5" fill="#fff"/>
   <path stroke-width=".5" d="m467.73 6.0355 0.39456 1.946-1.9567-0.33756-1.097 1.655-1.1449-1.6222-1.946 0.39456 0.33756-1.9567-1.6551-1.0971 1.6223-1.1449-0.39448-1.9459 1.9567 0.33749 1.097-1.655 1.145 1.6223 1.946-0.39456-0.33755 1.9567 1.655 1.0971z" fill="#fc0"/>
   <circle r="3" transform="matrix(.97757 .21059 -.21059 .97757 0 0)" cy="-96.037" cx="475.22" stroke-width=".5"/>
  </g>
 </g>
 <g transform="translate(0,-1042.4)" fill="none">
  <path stroke="#000" stroke-width=".57499px" d="m481.88 1045.8 0.441 0.6832 1.3664-0.8819-0.441-0.6832-1.3664 0.8819z"/>
  <g stroke-width=".5">
   <path stroke="#000" d="m482.67 1045.6c-0.22227-0.2776-0.3506-0.629-0.35949-0.9845-0.009-0.3555 0.10171-0.713 0.30983-1.0013s0.51253-0.5059 0.85273-0.6094 0.7142-0.092 1.0476 0.031c0.0876 0.033 0.17245 0.072 0.25327 0.1193l1.9615 1.0913"/>
   <path stroke-linejoin="round" stroke="#fff" d="m484.24 1050.6a2 2 0 0 1 -1.5209 -1.4577 2 2 0 0 1 0.62815 -2.0109"/>
   <g stroke="#000">
    <path d="m487.52 1045.2 0.11971 1.4092"/>
    <path d="m488.09 1044.9 1.1657 0.8006"/>
    <path d="m488.29 1044.4 1.3965-0.2232"/>
    <path d="m485.82 1045.9 1-1"/>
    <path d="m487.9 1043.9 0.56286-1.0604"/>
    <path d="m487.2 1043.8-0.52501-1.1752"/>
   </g>
  </g>
 </g>
 <g stroke="#000" stroke-width=".5">
  <g stroke-linejoin="round" stroke-linecap="round" transform="translate(0,-1042.4)">
   <path fill="#fff" d="m391.5 1050.4 1 1h-2.25l0.75779-3.1639-0.75779-2.8361h1.25v5z" fill-rule="evenodd"/>
   <path fill="#fff" d="m398.59 1050.4-1 1h2.1598l-0.80298-3.0285 0.80298-2.9715h-1.1598v5z" fill-rule="evenodd"/>
   <path d="m392.5 1051.4v-1h-1l1 1z" fill="none"/>
   <path d="m397.5 1051.4v-1h1l-1 1z" fill="none"/>
   <circle cy="1047.4" cx="505" r="3" fill="#fff"/>
   <rect height="2" width="2" y="1050.1" x="504" fill="#fc0"/>
  </g>
  <g transform="translate(0,-1042.4)" fill="none">
   <path d="m500 1047.4h1"/>
   <path d="m509 1047.4h1"/>
   <path d="m500.67 1049.9 0.86603-0.5"/>
   <path d="m508.46 1045.4 0.86603-0.5"/>
   <path d="m502.5 1051.7 0.5-0.866"/>
   <path d="m507 1043.9 0.5-0.866"/>
   <path d="m505 1043.4 0.00001-1"/>
   <path d="m507.5 1051.7-0.5-0.8"/>
   <path d="m503 1043.9-0.49999-0.866"/>
   <path d="m509.33 1049.9-0.866-0.5"/>
   <path d="m501.54 1045.4-0.866-0.5"/>
   <path d="m517.84 1044.6 0.70711-0.7071"/>
   <path d="m516.05 1043.5 0.25882-0.966"/>
   <path d="m513.98 1043.5-0.2588-0.966"/>
   <path d="m512.18 1044.6-0.7071-0.7071"/>
  </g>
  <circle stroke-linejoin="round" cx="360.64" transform="rotate(-45)" cy="367.61" stroke-linecap="round" r="3" fill="#fff"/>
  <path d="m514.98 5-0.81-2.795" fill="none"/>
  <g stroke-linejoin="round" stroke-linecap="round" transform="translate(0,-1042.4)">
   <path d="m542.5 1044.4h4.9948c0.55685 0 1.0052 0.446 1.0052 1v3c0 0.554-0.2621 0.9738-1.0052 1h-1.4671l0.0115 2.4355-2.0327-2.4355h-1.5065c-0.55686 0-1.0052-0.446-1.0052-1v-3c0-0.554 0.4483-1 1.0052-1z" fill="#fff"/>
   <ellipse rx="3.2936" ry="3.2946" cy="1047.4" cx="535" fill="#fff"/>
   <ellipse cy="1046.4" cx="533.76" rx=".4117" ry=".41183"/>
   <ellipse cy="1046.4" cx="536.24" rx=".4117" ry=".41183"/>
  </g>
  <path d="m533.35 6.1c0.8234 0.8237 2.4702 0.8237 3.2936 0" fill="none"/>
  <path stroke-linejoin="round" stroke-linecap="round" d="m554.9 1c-0.94289 0.024-1.847 0.3801-2.5527 1.0059-1.491 1.3219-1.7816 3.5416-0.68164 5.2031h6.6659c1.0652-1.6838 0.77959-3.967-0.7382-5.2578-0.76-0.6377-1.72-0.9764-2.7-0.9512z" fill="#fff"/>
  <g fill="none">
   <circle stroke-linejoin="round" stroke-linecap="round" transform="rotate(-45)" cy="494.89" cx="487.92" r="3"/>
   <path d="m697 7 2 2" stroke="#000" stroke-width="1px"/>
   <path stroke-linejoin="round" d="m696.81 4.7021a2.1175 2.1175 0 0 1 -1.9424 2.1007" stroke-opacity=".52020" stroke="#9e9e9e" stroke-linecap="round" stroke-width=".5"/>
   <path stroke-linejoin="round" d="m693.19 5.1281a2.1175 2.1175 0 0 1 1.9424 -2.1007" stroke="#fff" stroke-linecap="round" stroke-width=".5"/>
  </g>
 </g>
 <path d="m553 3 2 3h1v-1l-3-2z" fill-rule="evenodd"/>
 <path d="m112 9 3-8 3 8" stroke="#000" stroke-linecap="round" stroke-width=".5" fill="none"/>
 <path stroke="#000" stroke-width=".5" d="m112 8h6" fill="none"/>
 <g transform="translate(0,-1042.4)">
  <rect stroke-linejoin="round" ry="1" height="5.5" width="8" stroke="#000" stroke-linecap="round" y="1043.9" x="111" stroke-width=".5" fill="#fff"/>
  <rect height="3.5" width="6" y="1044.9" x="112" fill="#fff"/>
  <path d="m376.06 0.81641c-0.26 0-0.51 0.09905-0.71 0.29489l-4.24 4.2422c-0.39 0.3918-0.39 1.0223 0 1.4141l2.12 2.1211c0.39 0.3917 1.02 0.3917 1.42 0l4.24-4.2422c0.39-0.3918 0.39-1.0223 0-1.4141l-2.12-2.1211c-0.2-0.19584-0.45-0.29489-0.71-0.29489zm0.6 2.0352a0.5 0.5 0 0 1 0.35 0.1464 0.5 0.5 0 0 1 0 0.7071 0.5 0.5 0 0 1 -0.71 0 0.5 0.5 0 0 1 0 -0.7071 0.5 0.5 0 0 1 0.36 -0.1464z" transform="translate(0,1042.4)" stroke="#000" stroke-linecap="round" stroke-width=".5" fill="#ffdb9d"/>
 </g>
 <g stroke="#000">
  <g transform="translate(0,-1042.4)" fill="none">
   <path stroke-width=".5" stroke-linecap="round" d="m36.402 1109.8a1.5 1 0 0 1 1.5916 0.834 1.5 1 0 0 1 -1.1039 1.1313 1.5 1 0 0 1 -1.7887 -0.6319" transform="rotate(-18.007)"/>
   <g stroke-width=".7914px">
    <path d="m373.73 1050.1 0.44287-0.4429"/>
    <path d="m374.62 1049.3 0.44287-0.4428"/>
    <path d="m375.5 1048.4 0.44287-0.4429"/>
   </g>
  </g>
  <path stroke-width=".5" stroke-linecap="round" d="m567.5 4.5v2.0807c0.26 0.7418 1.42 1.4193 1 1.4193h-7c-0.54257 0 0.68303-0.7235 1-1.5142v-1.9858c0-1.5 0.84-2.5 2.5-2.5 1.6568 0 2.5 1 2.5 2.5z" fill="#fc0"/>
  <path stroke-width=".5" stroke-linecap="round" d="m565.5 8.7a0.5 0.5 0 0 1 -0.25 0.433 0.5 0.5 0 0 1 -0.5 0 0.5 0.5 0 0 1 -0.25 -0.433h0.5z" fill="#fc0"/>
 </g>
 <g stroke-linecap="round" transform="translate(0,-1042.4)" fill="none">
  <path stroke="#000" stroke-width=".4" d="m568.4-1045.8a3.2 3.2 0 0 1 -1.359 1.8833" transform="scale(1,-1)"/>
  <path stroke="#000" stroke-width=".4" d="m-561.6-1045.8a3.2 3.2 0 0 1 -1.359 1.8833" transform="scale(-1)"/>
  <path stroke="#fff" stroke-width=".36693" d="m563.77 1048.6c0.0008-0.062-0.008-2.1145 0.00022-2.1751 0.0805-0.5674 0.20635-1.0433 0.77551-1.2015"/>
  <g stroke="#000" stroke-width=".5">
   <path d="m451 1043.9 1 0.5 1 5.75h5"/>
   <circle cy="1050.9" cx="453" r=".75"/>
   <circle cy="1050.9" cx="457.98" r=".75"/>
  </g>
 </g>
 <g transform="translate(0,-1042.4)">
  <path stroke-linejoin="round" style="color-rendering:auto;text-decoration-color:#000000;color:#000000;isolation:auto;mix-blend-mode:normal;shape-rendering:auto;solid-color:#000000;block-progression:tb;text-decoration-line:none;image-rendering:auto;white-space:normal;text-indent:0;text-transform:none;text-decoration-style:solid" d="m571 1050c0.0358 0.4673 0.42729 0.8273 0.89617 0.8258h6.2033c0.69041 0.0008 1.1224-0.7462 0.77716-1.3442l-3.1018-5.377c-0.34414-0.5997-1.2098-0.5997-1.5543 0l-3.1015 5.377c-0.0896 0.1577-0.13264 0.337-0.11829 0.5184z" stroke="#000" stroke-linecap="round" stroke-width=".5" fill="#fc0"/>
  <g transform="matrix(1.015 0 0 .73937 210.57 44.961)">
   <path d="m358.65 1358.2h0.77212v0.9661h-0.77212zm0.36559-4.9183c0.1985 0 0.55415 0.2748 0.53963 0.5466l-0.1331 2.4914-0.0761 1.3578h-0.61617l-0.0799-1.3578-0.15091-2.4914c-0.0159-0.2621 0.32499-0.5466 0.51655-0.5466z"/>
  </g>
  <g transform="matrix(1.015 0 0 .73937 100.57 44.711)">
   <path d="m358.65 1358.2h0.77212v0.9661h-0.77212zm0.36559-4.9183c0.1985 0 0.55415 0.2748 0.53963 0.5466l-0.1331 2.4914-0.0761 1.3578h-0.61617l-0.0799-1.3578-0.15091-2.4914c-0.0159-0.2621 0.32499-0.5466 0.51655-0.5466z"/>
  </g>
  <path stroke-linejoin="round" d="m588 1044.4v4c0 1-1 2-2.9942 3.1112-2.01-1.1-3.01-2.1-3.01-3.1v-4c2-1 4-1 6 0z" stroke="#000" stroke-linecap="round" stroke-width=".5" fill="#9c3"/>
 </g>
 <g stroke="#000">
  <path d="m583.74 4.9 1 1 2.0277-2" fill="none"/>
  <g stroke-width=".5" transform="matrix(-.70711 -.70711 .70711 -.70711 277.49 1165.1)">
   <rect ry="0" height="1" width="9" y="1044.4" x="591" fill="#fff"/>
   <rect y="1044.4" x="591" width="7" height="1"/>
  </g>
  <g transform="translate(0,-1042.4)">
   <path stroke-width=".5" d="m595.06 1043.7-0.39846 0.1967-0.0639 0.4397-0.31016-0.3182-0.43794 0.075 0.20677-0.3933-0.20677-0.3933 0.43794 0.075 0.31016-0.3182 0.0639 0.4397z" fill="#fc0"/>
   <path stroke-width=".33456" d="m592.5 1048-0.39846 0.1966-0.0639 0.4398-0.31016-0.3182-0.43794 0.075 0.20677-0.3933-0.20677-0.3933 0.43794 0.075 0.31016-0.3182 0.0639 0.4397z"/>
   <path stroke-width=".5" fill="#fc0" d="m598.03 1045.3-0.66318 0.3273-0.10635 0.7319-0.51621-0.5296-0.7289 0.125 0.34414-0.6546-0.34414-0.6546 0.7289 0.125 0.51621-0.5296 0.10635 0.7319z" transform="matrix(.60208 .79844 -.79844 .60208 1072.2 -61.134)"/>
  </g>
 </g>
 <g transform="matrix(.41667 0 0 .41667 82.499 -430.19)">
  <g transform="translate(594,1032.4)">
   <path d="m0 0h24v24h-24z" fill="none"/>
   <path d="m1 9 2 2c4.97-4.97 13.03-4.97 18 0l2-2c-6.07-6.07-15.92-6.07-22 0zm8 8 3 3 3-3c-1.65-1.66-4.34-1.66-6 0zm-4-4 2 2c2.76-2.76 7.24-2.76 10 0l2-2c-3.86-3.86-10.13-3.86-14 0z"/>
  </g>
 </g>
 <path d="m340 0h10v10h-10z" fill="none"/>
 <g transform="translate(0,-1042.4)">
  <path d="m343.75 1049.4 1.25 1.25 1.25-1.25c-0.6875-0.6916-1.8083-0.6916-2.5 0z"/>
  <path d="m340.42 1046.1 0.83333 0.8333c2.0708-2.0708 5.4292-2.0708 7.5 0l0.83333-0.8333c-2.5292-2.5292-6.6333-2.5292-9.1667 0z" fill-opacity=".23529"/>
  <path d="m342.08 1047.8 0.83334 0.8333c1.15-1.15 3.0167-1.15 4.1667 0l0.83334-0.8333c-1.6083-1.6084-4.2208-1.6084-5.8333 0z"/>
 </g>
 <g stroke="#000" fill="none">
  <path stroke-width=".5" d="m642 5h6"/>
  <path stroke-width=".5" d="m645 2v6"/>
  <g stroke-width=".50001">
   <path d="m617.41 5 1.3268-2.2345-2.2346-1.3267"/>
   <path d="m618.42 2.9c-2.4247 0.055-3.3502 1.9898-3.4242 3.5554v2.0001"/>
   <g transform="matrix(-1 0 0 1 1230 -1042.4)">
    <path d="m617.41 1047.4 1.3268-2.2345-2.2346-1.3267"/>
    <path d="m618.42 1045.3c-2.4247 0.055-3.3502 1.9898-3.4242 3.5554v2.0001"/>
   </g>
  </g>
  <g transform="translate(0,-1042.4)">
   <path stroke-width=".5" d="m627.97 1047.1c0.0965 1.4331-0.85081 2.7691-2.2944 3.1153h0.0001c-1.2798 0.3069-2.5648-0.2565-3.2329-1.3088m-0.45013-1.2921c-0.15867-1.4773 0.80053-2.878 2.2839-3.2337 1.4336-0.3438 2.8738 0.4045 3.446 1.7087"/>
   <path stroke-width=".50001" d="m624.83 1048.7-2.5988-0.013-0.0128 2.5988"/>
   <path stroke-width=".50001" d="m625.31 1046.1 2.5988 0.013 0.0128-2.5988"/>
  </g>
 </g>
 <g transform="matrix(.99995 0 0 -1 -.21977 1051.3)">
  <circle r="1" cy="1044.4" stroke="#000" cx="632" stroke-width=".5" fill="none"/>
  <circle r="1" cy="1048.4" stroke="#000" cx="632" stroke-width=".5" fill="none"/>
  <path d="m632.39 1045.2 4.5536 3.5538h1l-5.1375-4.1133" fill-rule="evenodd"/>
  <path d="m632.46 1047.7 1.5238-1.278h1l-2.1077 1.8375" fill-rule="evenodd"/>
 </g>
 <path d="m639 5h-3.73" stroke="#000" stroke-dasharray="1, 0.5" stroke-width=".5" fill="none"/>
 <g transform="translate(10,-1042.4)">
  <path d="m343.75 1049.4 1.25 1.25 1.25-1.25c-0.6875-0.6916-1.8083-0.6916-2.5 0z"/>
  <path d="m340.42 1046.1 0.83333 0.8333c2.0708-2.0708 5.4292-2.0708 7.5 0l0.83333-0.8333c-2.5292-2.5292-6.6333-2.5292-9.1667 0z" fill-opacity=".23529"/>
  <path d="m342.08 1047.8 0.83334 0.8333c1.15-1.15 3.0167-1.15 4.1667 0l0.83334-0.8333c-1.6083-1.6084-4.2208-1.6084-5.8333 0z" fill-opacity=".23529"/>
 </g>
 <rect height="4" width="2" stroke="#000" y="3.7491" x="652" stroke-width=".5" fill="#d3d7cf"/>
 <circle cy="6.8491" cx="652.98" r=".25"/>
 <path stroke="#000" stroke-width=".5" d="m668.51 5.1 1.09-1.0854-1.09-1.0854" fill="none"/>
 <rect height="5" width="6" stroke="#000" y="4" x="672" stroke-width=".5" fill="#fc0"/>
 <circle cy="6" cx="675" r="0"/>
 <path stroke="#000" stroke-width=".5" d="m675 6v1.5" fill="none"/>
 <g transform="translate(0,-1042.4)">
  <circle r="4" cy="1047.4" stroke="#000" cx="685" stroke-width=".5" fill="#d5eef8"/>
  <rect y="1045.1" x="684.5" width="1" height="1"/>
  <rect y="1046.7" x="684.5" width="1" height="2.9295"/>
 </g>
 <g transform="translate(0 -1041.3)">
  <path stroke-linejoin="round" style="color-rendering:auto;text-decoration-color:#000000;color:#000000;isolation:auto;mix-blend-mode:normal;shape-rendering:auto;solid-color:#000000;block-progression:tb;text-decoration-line:none;image-rendering:auto;white-space:normal;text-indent:0;text-transform:none;text-decoration-style:solid" d="m661.95 1049.4c0.0273 0.3568 0.32626 0.6317 0.68428 0.6306h4.7366c0.52717 0.0006 0.85699-0.5698 0.59341-1.0264l-2.3684-4.1057c-0.26277-0.4579-0.92378-0.4579-1.1868 0l-2.3682 4.1057c-0.0684 0.1204-0.10128 0.2573-0.0903 0.3958z" stroke="#000" stroke-linecap="round" stroke-width=".5" fill="#fc0"/>
  <g transform="matrix(.77503 0 0 .56455 386.74 281.95)">
   <path d="m358.65 1358.2h0.77212v0.9661h-0.77212z"/>
   <path d="m359.01 1353.2c0.25271 0 0.70549 0.2624 0.68701 0.522l-0.16945 2.379-0.0969 1.2966h-0.78444l-0.10173-1.2966-0.19212-2.379c-0.0202-0.2503 0.41375-0.522 0.65762-0.522z"/>
  </g>
 </g>
 <g stroke="#000" stroke-width="34.133" transform="matrix(.014648 0 0 .014648 401.25 1.2)" fill="#d5eef8">
  <path stroke="#000" stroke-width="34.133" d="m172.25 85.124c-25.46-10.232-50.92-20.462-76.385-30.694l-42.111 42.111c10.381 25.238 20.763 50.476 31.144 75.715-4.4645 7.1505-5.4637 16.36-10.737 22.852-24.635 10.533-49.27 21.066-73.905 31.6v59.564l75.639 31.512c1.9919 8.1876 7.4783 15.59 8.4222 23.839-9.9617 24.838-19.923 49.676-29.885 74.513l42.111 42.111c25.296-10.416 50.591-20.834 75.887-31.249 7.0276 4.3273 16.175 5.1792 22.486 10.343l31.794 74.404h59.568c10.601-25.48 21.205-50.958 31.804-76.438 7.7357-1.9854 14.772-7.2428 22.634-8.0178l75.407 30.214 42.109-42.109c-10.544-25.563-21.091-51.124-31.633-76.688 4.0867-6.73 4.9002-15.39 9.9663-21.36l75.183-32.059v-59.56c-25.615-10.672-51.229-21.347-76.844-32.018-1.8242-7.6527-6.982-14.584-7.7205-22.313l30.339-75.534c-14.05-14.01-28.09-28.047-42.14-42.084-25.51 10.508-51.03 21.015-76.54 31.523-6.81-4.247-15.61-5.27-21.7-10.357l-31.86-74.664h-59.564c-10.36 24.792-20.71 49.584-29.034 64.558-8.3241 14.974-17.384 15.994-24.433 20.286zm85.12 69.383c44.132 0.13888 85.652 32.702 96.319 75.539 10.571 38.882-4.5783 83.243-37.15 107.13-32.545 24.876-80.384 27.176-114.91 4.9395-34.124-21.104-53.513-63.516-46.28-103.12 6.6875-40.984 40.706-76.032 81.854-82.831 6.646-1.2351 13.414-1.7244 20.169-1.6587z" fill="#b0c4de"/>
 </g>
 <path stroke-linejoin="round" style="color-rendering:auto;text-decoration-color:#000000;color:#000000;isolation:auto;mix-blend-mode:normal;shape-rendering:auto;solid-color:#000000;block-progression:tb;text-decoration-line:none;image-rendering:auto;white-space:normal;text-indent:0;text-transform:none;text-decoration-style:solid" d="m602.67 9.2h4.6524c0.51781 0.0006 0.84178-0.5596 0.58287-1.0081l-2.3264-4.0327c-0.25811-0.4498-0.90737-0.4498-1.1657 0l-2.3261 4.0327c-0.0672 0.1182-0.0995 0.2527-0.081 0.496 0.0185 0.2432 0.31218 0.5121 0.66385 0.5121z" stroke="#000" stroke-linecap="round" stroke-width=".5" fill="#fc0"/>
 <g transform="matrix(.65579 0 0 .47769 369.55 -641.04)">
  <path d="m358.65 1358.2h0.77212v0.9661h-0.77212zm0.36559-4.9183c0.1985 0 0.55415 0.2748 0.53963 0.5466l-0.1331 2.4914-0.0761 1.3578h-0.61617l-0.0799-1.3578-0.15091-2.4914c-0.0159-0.2621 0.32499-0.5466 0.51655-0.5466z"/>
 </g>
 <rect fill-opacity="0" height="13.119" width="12.47" y="-22.8" x="581.64"/>
 <g stroke="#000">
  <g transform="translate(0,-1042.4)" fill="none">
   <path stroke-linejoin="round" stroke-width=".5" d="m493.44 1046.4v-0.9774c0-0.554 0.446-1 1-1h4.56v6h-4.56c-0.554 0-1-0.446-1-1v-0.9786"/>
   <path stroke-width=".5" d="m496.58 1047.4h-5.4971"/>
   <path stroke-width=".45939" d="m494.75 1049.3 1.8377-1.8376-1.8377-1.8375"/>
  </g>
  <path stroke-linejoin="round" stroke-width=".5" d="m499.16 2.9c0-0.5734-0.14498-0.9231-0.32506-0.7842l-1.1294 0.871c-0.18008 0.1389-0.32506 0.7124-0.32506 1.2858v4.14c0 0.5734 0.14498 0.9231 0.32506 0.7842l1.1294-0.871c0.19-0.1389 0.33-0.7124 0.33-1.2858v-2.0706z" fill="#f4a460"/>
  <g transform="translate(0,-1042.4)">
   <circle stroke-linejoin="round" cx="525" stroke-linecap="round" cy="1045.4" r="1.9687" stroke-width=".56253" fill="#fff"/>
   <path stroke-width=".5" d="m522.27 1048.6c0.59586-0.2687 1.2472-0.8297 1.7848-0.5542 0.64599 0.3309 1.2958 0.2333 1.9577 0.01 0.56309-0.1923 1.182 0.2941 1.7926 0.5849 0.36277 0.2567 0.69148 0.4648 0.69882 0.9254v1.8156h-7v-1.6692c0.006-0.5651 0.34839-0.9189 0.76611-1.1097z" fill="#bfbfbf"/>
  </g>
 </g>
 <g transform="translate(-130,-1042.4)">
  <path stroke="#000" stroke-width=".5" d="m602.6 1044.4h-1.475v7.0051h8.125l0.00003-5.7601-3 1.4824v-1.4824l-2.95 1.5101v-2.7551h-0.7" fill="#fce94f"/>
  <path d="m603.63 1049.1h-1.1297v1.0296h1.1297z"/>
  <path d="m605.63 1049.1h-1.1297v1.0296h1.1297z"/>
  <path d="m607.63 1049.1h-1.1297v1.0296h1.1297z"/>
  <path fill-rule="evenodd" d="m601.91 1043.8c0.004-0.6396 1.4627-1.3293 2.4962-0.6911 0.37502-0.6301 1.6618-0.3976 1.6441 0.078 0.82188-0.5283 1.8634-0.048 1.3867 0.7396-0.20372 0.3363-1.229 0.7323-2.3989 0.1704-0.80719 0.5452-1.7316-1.3288-2.4388-0.2442-0.17939-0.114-0.55924-0.081-0.55924-0.081z" fill-opacity=".44444"/>
 </g>
 <g stroke="#000">
  <g stroke-linecap="round">
   <circle stroke-linejoin="round" stroke-width=".5" cy="6.1014" cx="675.01" r=".29269"/>
   <rect transform="matrix(.8916 -.45282 .8916 .45282 0 0)" height="4.1075" width="4.1075" y="241.68" x="230.88" stroke-width=".55642" fill="#97a18e"/>
   <rect transform="matrix(.8916 -.45282 .8916 .45282 0 0)" height="4.1075" width="4.1075" y="240.02" x="232.54" stroke-width=".55642" fill="#d3d7cf"/>
  </g>
  <g stroke-width=".5">
   <rect ry="0" transform="rotate(90)" height="6" width="7" stroke-linecap="round" y="-368" x="2" fill="#fff"/>
   <path d="m363.99 1.5h0.32767s0.0647-0.53079 0.67233-0.5c0.59-0.02807 0.66 0.5 0.66 0.5h0.3449c0.60254 0 0.5 0.80875 0.5 1.25h-3c0-0.51808-0.0143-1.25 0.5-1.25z" fill-rule="evenodd" fill="#fce94f"/>
   <rect transform="rotate(90)" ry="0" height="6" width="7" stroke-linecap="round" y="-738" x="2" fill="#fff"/>
   <path d="m733.99 1.5h0.32767s0.0647-0.53079 0.67233-0.5c0.59-0.02807 0.66 0.5 0.66 0.5h0.3449c0.60254 0 0.5 0.80875 0.5 1.25h-3c0-0.51808-0.0143-1.25 0.5-1.25z" fill-rule="evenodd" fill="#fce94f"/>
  </g>
  <path d="m363.48 5.4793 1 1 2.0277-2" fill="none"/>
  <path stroke-linejoin="round" d="m707 1.5319-0.00001 5.3853c0.00001 0.38145 0.00001 0.38145-1.0263 1.4078-1.0263 1.0263-1.0263 1.0263-2.0526 0.0000076s-1.0263-1.0263-1.0263-1.5159l-0.00001-5.2772c0-0.42193 0.45712-1.0263 1.4834-1.0263s1.5955 0.53404 1.5955 1.0263l-0.00001 4.1053c-0.00001 0.62881-0.41629 1.0263-1.0263 1.0263-0.61002 1e-7 -1.0263-0.47392-1.0263-1.0263l-0.00001-3.7831" stroke-linecap="round" stroke-width=".5" fill="none"/>
 </g>
 <g>
  <rect stroke-linejoin="round" ry="1" height="6" width="8" stroke="#000" stroke-linecap="round" y="2.75" x="711" stroke-width=".5" fill="#fff"/>
  <rect ry="0" height="1" width="3" y="5.25" x="713.5" fill="#ff531c"/>
  <rect transform="rotate(90)" ry="0" height="1" width="3" y="-715.5" x="4.25" fill="#ff531c"/>
  <path stroke-linejoin="round" d="m722.01 1.7441c-0.28612 0-0.51758 0.23146-0.51758 0.51758v0.47656c0 0.021485 0.009 0.039765 0.0117 0.060547-0.43 0.1107-0.75 0.4838-0.75 0.9512v4c0 0.554 0.446 1 1 1h6c0.554 0 1-0.446 1-1v-4c0-0.554-0.446-1-1-1h-3.7461c0.00009-0.00411 0.002-0.00758 0.002-0.011719v-0.47656c0-0.28612-0.23146-0.51758-0.51758-0.51758h-1.4766z" stroke="#000" stroke-linecap="round" stroke-width=".5" fill="#e9b96e"/>
  <rect stroke-linejoin="round" transform="matrix(1 0 -.092759 .99569 0 0)" ry=".75418" height="4.5251" width="8.0649" stroke="#000" stroke-linecap="round" y="4.3191" x="721.96" stroke-width=".50108" fill="#f4ddb8"/>
 </g>
 <g stroke="#000" fill="none" transform="matrix(0 -1 1 0 743.48 740.77)">
  <path d="m735-9.482v5.5" stroke-width=".50013"/>
  <path d="m733.16-7.7 1.838-1.8 1.8376 1.8377" stroke-width=".45939"/>
 </g>
 <rect ry="0" transform="rotate(90)" height="6" width="8" stroke="#000" y="-748" x="1" stroke-width=".5" fill="#fff"/>
 <g stroke="#000" transform="matrix(-1 0 0 -1 1480 -2.4341)" fill="none">
  <path d="m735-9.0986v4.1645" stroke-width="0.481"/>
  <path d="m733.16-7.45 1.838-1.8 1.8376 1.8377" stroke-width=".45939"/>
  <path d="m737-10.184h-4" stroke-width=".5"/>
 </g>
</svg>
