<svg id="Layer_1" data-name="Layer 1" xmlns="http://www.w3.org/2000/svg" xmlns:xlink="http://www.w3.org/1999/xlink" viewBox="0 0 320.65 93.91" width="200" height="90"><defs><style>.cls-1{fill-rule:evenodd;fill:url(#linear-gradient);}.cls-2{font-size:18px;fill:#ff940e;font-family:ArialMT, Arial;}</style><linearGradient id="linear-gradient" x1="152.2" y1="90.17" x2="152.2" y2="5.62" gradientUnits="userSpaceOnUse"><stop offset="0" stop-color="#f68826"/><stop offset="0.45" stop-color="#faa227"/><stop offset="1" stop-color="#fdb714"/></linearGradient></defs><path class="cls-1" d="M99.83,88.73l13.75-17.79H56.86a38.82,38.82,0,0,1-5.67-.4,34.11,34.11,0,0,1-5.31-1.23,30.85,30.85,0,0,1-4.8-2,24.78,24.78,0,0,1-4.17-2.7h0a22.28,22.28,0,0,1-3.46-3.4,21.7,21.7,0,0,1-2.59-4.06,20.67,20.67,0,0,1-1.62-4.63,23.3,23.3,0,0,1-.54-5,23,23,0,0,1,.56-5.06,20.43,20.43,0,0,1,1.68-4.68,23.07,23.07,0,0,1,6-7.55,24.74,24.74,0,0,1,4.14-2.78,30.15,30.15,0,0,1,4.78-2.05,31.58,31.58,0,0,1,5.33-1.28,36.22,36.22,0,0,1,5.68-.43h41.4v-9h18v-9h9v9h-9v9h9.52l26.61,39.24,1.95,2.88,2-2.84L196.93,5.63H297.85l-13.9,18H210.34l-.73,1L179.25,67.62l-9.7,13.72a23.11,23.11,0,0,1-2.89,3.28,36.14,36.14,0,0,1-3.65,3,12.89,12.89,0,0,1-4,1.89,18.14,18.14,0,0,1-5.12.67,19,19,0,0,1-5-.62,12.63,12.63,0,0,1-3.92-1.79,23.76,23.76,0,0,1-3.48-2.88,25.93,25.93,0,0,1-2.93-3.52L99.31,24.72l-.73-1h8.71V5.62H56.86a73.24,73.24,0,0,0-10.67.75A59.88,59.88,0,0,0,36.43,8.6a52.92,52.92,0,0,0-8.66,3.58A44.37,44.37,0,0,0,20.46,17a39.78,39.78,0,0,0-5.91,5.91,38.75,38.75,0,0,0-4.49,7,33.93,33.93,0,0,0-2.81,7.82,38.33,38.33,0,0,0-.94,8.64A39.24,39.24,0,0,0,7.25,55a35.86,35.86,0,0,0,2.83,8,40.55,40.55,0,0,0,4.5,7.23,41.25,41.25,0,0,0,5.92,6.19h0a45.86,45.86,0,0,0,7.33,5.08,55.52,55.52,0,0,0,8.66,3.89,56.45,56.45,0,0,0,9.74,2.45,65.94,65.94,0,0,0,10.63.82h43ZM134.36,5.62v9h9v-9ZM253,39H214V88.72h70.36L298.1,70.94H236.5V54.16h44.58L292.94,39Z"/><text class="cls-2" transform="translate(303.31 19.09)">®</text></svg>